G04*
G04 #@! TF.GenerationSoftware,Altium Limited,Altium Designer,19.0.15 (446)*
G04*
G04 Layer_Color=2752767*
%FSLAX23Y23*%
%MOIN*%
G70*
G01*
G75*
%ADD61C,0.002*%
%ADD62C,0.003*%
D61*
X3511Y3126D02*
Y3142D01*
X3527D01*
Y3126D01*
X3511D01*
Y3299D02*
Y3315D01*
X3527D01*
Y3299D01*
X3511D01*
X3912Y3079D02*
X3904Y3095D01*
X3920D01*
X3912Y3079D01*
X3802Y2854D02*
X3794Y2870D01*
X3810D01*
X3802Y2854D01*
X4051Y2940D02*
X4043Y2956D01*
X4059D01*
X4051Y2940D01*
X4245Y3154D02*
X4237Y3170D01*
X4253D01*
X4245Y3154D01*
X4589Y3494D02*
X4581Y3510D01*
X4597D01*
X4589Y3494D01*
X4627Y3494D02*
X4619Y3510D01*
X4635D01*
X4627Y3494D01*
X5091Y3537D02*
X5083Y3553D01*
X5099D01*
X5091Y3537D01*
X5376Y3534D02*
X5368Y3550D01*
X5384D01*
X5376Y3534D01*
X4756Y3009D02*
X4748Y3025D01*
X4764D01*
X4756Y3009D01*
X3620Y2964D02*
X3612Y2980D01*
X3628D01*
X3620Y2964D01*
X4857Y2996D02*
X4861Y3000D01*
X4865D01*
X4861Y3004D01*
X4865Y3008D01*
X4861D01*
X4857Y3012D01*
X4853Y3008D01*
X4849D01*
X4853Y3004D01*
X4849Y3000D01*
X4853D01*
X4857Y2996D01*
X4853Y3555D02*
X4857Y3559D01*
X4861D01*
X4857Y3563D01*
X4861Y3567D01*
X4857D01*
X4853Y3571D01*
X4849Y3567D01*
X4845D01*
X4849Y3563D01*
X4845Y3559D01*
X4849D01*
X4853Y3555D01*
X3510Y3458D02*
X3514Y3462D01*
X3518D01*
X3514Y3466D01*
X3518Y3470D01*
X3514D01*
X3510Y3474D01*
X3506Y3470D01*
X3502D01*
X3506Y3466D01*
X3502Y3462D01*
X3506D01*
X3510Y3458D01*
X3444Y3661D02*
X3448Y3665D01*
X3452D01*
X3448Y3669D01*
X3452Y3673D01*
X3448D01*
X3444Y3677D01*
X3440Y3673D01*
X3436D01*
X3440Y3669D01*
X3436Y3665D01*
X3440D01*
X3444Y3661D01*
X3758Y3488D02*
X3762Y3492D01*
X3766D01*
X3762Y3496D01*
X3766Y3500D01*
X3762D01*
X3758Y3504D01*
X3754Y3500D01*
X3750D01*
X3754Y3496D01*
X3750Y3492D01*
X3754D01*
X3758Y3488D01*
X3847Y3661D02*
X3851Y3665D01*
X3855D01*
X3851Y3669D01*
X3855Y3673D01*
X3851D01*
X3847Y3677D01*
X3843Y3673D01*
X3839D01*
X3843Y3669D01*
X3839Y3665D01*
X3843D01*
X3847Y3661D01*
X4160Y3466D02*
X4164Y3470D01*
X4168D01*
X4164Y3474D01*
X4168Y3478D01*
X4164D01*
X4160Y3482D01*
X4156Y3478D01*
X4152D01*
X4156Y3474D01*
X4152Y3470D01*
X4156D01*
X4160Y3466D01*
X4473Y3596D02*
X4477Y3600D01*
X4481D01*
X4477Y3604D01*
X4481Y3608D01*
X4477D01*
X4473Y3612D01*
X4469Y3608D01*
X4465D01*
X4469Y3604D01*
X4465Y3600D01*
X4469D01*
X4473Y3596D01*
X5478Y3660D02*
X5482Y3664D01*
X5486D01*
X5482Y3668D01*
X5486Y3672D01*
X5482D01*
X5478Y3676D01*
X5474Y3672D01*
X5470D01*
X5474Y3668D01*
X5470Y3664D01*
X5474D01*
X5478Y3660D01*
X5548Y3491D02*
X5552Y3495D01*
X5556D01*
X5552Y3499D01*
X5556Y3503D01*
X5552D01*
X5548Y3507D01*
X5544Y3503D01*
X5540D01*
X5544Y3499D01*
X5540Y3495D01*
X5544D01*
X5548Y3491D01*
Y3308D02*
X5552Y3312D01*
X5556D01*
X5552Y3316D01*
X5556Y3320D01*
X5552D01*
X5548Y3324D01*
X5544Y3320D01*
X5540D01*
X5544Y3316D01*
X5540Y3312D01*
X5544D01*
X5548Y3308D01*
Y3112D02*
X5552Y3116D01*
X5556D01*
X5552Y3120D01*
X5556Y3124D01*
X5552D01*
X5548Y3128D01*
X5544Y3124D01*
X5540D01*
X5544Y3120D01*
X5540Y3116D01*
X5544D01*
X5548Y3112D01*
X5509Y2821D02*
X5513Y2825D01*
X5517D01*
X5513Y2829D01*
X5517Y2833D01*
X5513D01*
X5509Y2837D01*
X5505Y2833D01*
X5501D01*
X5505Y2829D01*
X5501Y2825D01*
X5505D01*
X5509Y2821D01*
X5080D02*
X5084Y2825D01*
X5088D01*
X5084Y2829D01*
X5088Y2833D01*
X5084D01*
X5080Y2837D01*
X5076Y2833D01*
X5072D01*
X5076Y2829D01*
X5072Y2825D01*
X5076D01*
X5080Y2821D01*
X4744D02*
X4748Y2825D01*
X4752D01*
X4748Y2829D01*
X4752Y2833D01*
X4748D01*
X4744Y2837D01*
X4740Y2833D01*
X4736D01*
X4740Y2829D01*
X4736Y2825D01*
X4740D01*
X4744Y2821D01*
X4190D02*
X4194Y2825D01*
X4198D01*
X4194Y2829D01*
X4198Y2833D01*
X4194D01*
X4190Y2837D01*
X4186Y2833D01*
X4182D01*
X4186Y2829D01*
X4182Y2825D01*
X4186D01*
X4190Y2821D01*
X3701D02*
X3705Y2825D01*
X3709D01*
X3705Y2829D01*
X3709Y2833D01*
X3705D01*
X3701Y2837D01*
X3697Y2833D01*
X3693D01*
X3697Y2829D01*
X3693Y2825D01*
X3697D01*
X3701Y2821D01*
X3462D02*
X3466Y2825D01*
X3470D01*
X3466Y2829D01*
X3470Y2833D01*
X3466D01*
X3462Y2837D01*
X3458Y2833D01*
X3454D01*
X3458Y2829D01*
X3454Y2825D01*
X3458D01*
X3462Y2821D01*
X3376Y2932D02*
X3380Y2936D01*
X3384D01*
X3380Y2940D01*
X3384Y2944D01*
X3380D01*
X3376Y2948D01*
X3372Y2944D01*
X3368D01*
X3372Y2940D01*
X3368Y2936D01*
X3372D01*
X3376Y2932D01*
X3455Y3204D02*
X3459Y3208D01*
X3463D01*
X3459Y3212D01*
X3463Y3216D01*
X3459D01*
X3455Y3220D01*
X3451Y3216D01*
X3447D01*
X3451Y3212D01*
X3447Y3208D01*
X3451D01*
X3455Y3204D01*
X3389Y3123D02*
X3393Y3127D01*
X3397D01*
X3393Y3131D01*
X3397Y3135D01*
X3393D01*
X3389Y3139D01*
X3385Y3135D01*
X3381D01*
X3385Y3131D01*
X3381Y3127D01*
X3385D01*
X3389Y3123D01*
Y3205D02*
X3393Y3209D01*
X3397D01*
X3393Y3213D01*
X3397Y3217D01*
X3393D01*
X3389Y3221D01*
X3385Y3217D01*
X3381D01*
X3385Y3213D01*
X3381Y3209D01*
X3385D01*
X3389Y3205D01*
Y3289D02*
X3393Y3293D01*
X3397D01*
X3393Y3297D01*
X3397Y3301D01*
X3393D01*
X3389Y3305D01*
X3385Y3301D01*
X3381D01*
X3385Y3297D01*
X3381Y3293D01*
X3385D01*
X3389Y3289D01*
X4828Y3229D02*
X4820Y3245D01*
X4836D01*
X4828Y3229D01*
X4571Y3175D02*
X4563Y3191D01*
X4579D01*
X4571Y3175D01*
X4551Y3352D02*
X4543Y3368D01*
X4559D01*
X4551Y3352D01*
X4571Y3254D02*
X4563Y3270D01*
X4579D01*
X4571Y3254D01*
X5091Y2892D02*
X5083Y2908D01*
X5099D01*
X5091Y2892D01*
X4386Y3254D02*
X4378Y3270D01*
X4394D01*
X4386Y3254D01*
X4245Y3277D02*
X4249Y3281D01*
X4253D01*
X4249Y3285D01*
X4253Y3289D01*
X4249D01*
X4245Y3293D01*
X4241Y3289D01*
X4237D01*
X4241Y3285D01*
X4237Y3281D01*
X4241D01*
X4245Y3277D01*
X5191Y3297D02*
X5183Y3313D01*
X5199D01*
X5191Y3297D01*
X5189Y3217D02*
X5181Y3233D01*
X5197D01*
X5189Y3217D01*
X5191Y2987D02*
X5183Y3003D01*
X5199D01*
X5191Y2987D01*
X4490Y3322D02*
X4482Y3338D01*
X4498D01*
X4490Y3322D01*
X4431Y3287D02*
X4423Y3303D01*
X4439D01*
X4431Y3287D01*
X4430Y3352D02*
X4422Y3368D01*
X4438D01*
X4430Y3352D01*
X4391Y3175D02*
X4383Y3191D01*
X4399D01*
X4391Y3175D01*
X4175Y2942D02*
X4179Y2946D01*
X4183D01*
X4179Y2950D01*
X4183Y2954D01*
X4179D01*
X4175Y2958D01*
X4171Y2954D01*
X4167D01*
X4171Y2950D01*
X4167Y2946D01*
X4171D01*
X4175Y2942D01*
X3840Y3407D02*
X3844Y3411D01*
X3848D01*
X3844Y3415D01*
X3848Y3419D01*
X3844D01*
X3840Y3423D01*
X3836Y3419D01*
X3832D01*
X3836Y3415D01*
X3832Y3411D01*
X3836D01*
X3840Y3407D01*
X4391Y2987D02*
X4383Y3003D01*
X4399D01*
X4391Y2987D01*
X3715Y3082D02*
X3707Y3098D01*
X3723D01*
X3715Y3082D01*
D62*
X5383Y3065D02*
G03*
X5383Y3065I-8J0D01*
G01*
Y3165D02*
G03*
X5383Y3165I-8J0D01*
G01*
Y3265D02*
G03*
X5383Y3265I-8J0D01*
G01*
Y3365D02*
G03*
X5383Y3365I-8J0D01*
G01*
Y3465D02*
G03*
X5383Y3465I-8J0D01*
G01*
X4358Y3600D02*
G03*
X4358Y3600I-8J0D01*
G01*
X4258D02*
G03*
X4258Y3600I-8J0D01*
G01*
X4298Y2860D02*
G03*
X4298Y2860I-8J0D01*
G01*
X4398D02*
G03*
X4398Y2860I-8J0D01*
G01*
X4498D02*
G03*
X4498Y2860I-8J0D01*
G01*
X4598D02*
G03*
X4598Y2860I-8J0D01*
G01*
M02*
