M48
;Layer_Color=5050912
;FILE_FORMAT=2:3
INCH,LZ
;TYPE=PLATED
T1F00S00C0.010
T2F00S00C0.017
T3F00S00C0.039
;TYPE=NON_PLATED
T4F00S00C0.037
%
T01
X04756Y03017
X05091Y029
X05191Y02995
X04391
X04051Y02948
X03912Y03087
X03715Y0309
X0362Y02972
X03802Y02862
X04245Y03162
X04391Y03183
X04386Y03262
X04431Y03295
X0443Y0336
X0449Y0333
X04551Y0336
X04571Y03262
Y03183
X04589Y03502
X04627Y03502
X04828Y03237
X05189Y03225
X05191Y03305
X05091Y03545
X05376Y03542
T02
X04744Y02829
X04857Y03004
X0508Y02829
X05509
X05548Y0312
X04175Y0295
X0419Y02829
X03701
X03462
X03376Y0294
X03389Y03131
Y03213
X03455Y03212
X03389Y03297
X0351Y03466
X03444Y03669
X03847
X0384Y03415
X03758Y03496
X0416Y03474
X04245Y03285
X04473Y03604
X04853Y03563
X05478Y03668
X05548Y03499
Y03316
T03
X05375Y03065
X0459Y0286
X0449
X0439
X0429
X0425Y036
X0435
X05375Y03465
Y03365
Y03265
Y03165
T04
X03519Y03134
Y03307
M30
