G04*
G04 #@! TF.GenerationSoftware,Altium Limited,Altium Designer,19.0.15 (446)*
G04*
G04 Layer_Color=8388736*
%FSLAX23Y23*%
%MOIN*%
G70*
G01*
G75*
%ADD29R,0.045X0.059*%
%ADD30R,0.067X0.185*%
%ADD31R,0.059X0.071*%
%ADD32R,0.059X0.045*%
G04:AMPARAMS|DCode=33|XSize=19mil|YSize=69mil|CornerRadius=7mil|HoleSize=0mil|Usage=FLASHONLY|Rotation=180.000|XOffset=0mil|YOffset=0mil|HoleType=Round|Shape=RoundedRectangle|*
%AMROUNDEDRECTD33*
21,1,0.019,0.056,0,0,180.0*
21,1,0.006,0.069,0,0,180.0*
1,1,0.014,-0.003,0.028*
1,1,0.014,0.003,0.028*
1,1,0.014,0.003,-0.028*
1,1,0.014,-0.003,-0.028*
%
%ADD33ROUNDEDRECTD33*%
G04:AMPARAMS|DCode=34|XSize=19mil|YSize=69mil|CornerRadius=7mil|HoleSize=0mil|Usage=FLASHONLY|Rotation=270.000|XOffset=0mil|YOffset=0mil|HoleType=Round|Shape=RoundedRectangle|*
%AMROUNDEDRECTD34*
21,1,0.019,0.056,0,0,270.0*
21,1,0.006,0.069,0,0,270.0*
1,1,0.014,-0.028,-0.003*
1,1,0.014,-0.028,0.003*
1,1,0.014,0.028,0.003*
1,1,0.014,0.028,-0.003*
%
%ADD34ROUNDEDRECTD34*%
%ADD35R,0.053X0.032*%
%ADD36R,0.071X0.087*%
%ADD37R,0.106X0.087*%
%ADD38R,0.097X0.028*%
%ADD39C,0.045*%
G04:AMPARAMS|DCode=40|XSize=88mil|YSize=68mil|CornerRadius=0mil|HoleSize=0mil|Usage=FLASHONLY|Rotation=0.000|XOffset=0mil|YOffset=0mil|HoleType=Round|Shape=Octagon|*
%AMOCTAGOND40*
4,1,8,0.044,-0.017,0.044,0.017,0.027,0.034,-0.027,0.034,-0.044,0.017,-0.044,-0.017,-0.027,-0.034,0.027,-0.034,0.044,-0.017,0.0*
%
%ADD40OCTAGOND40*%

G04:AMPARAMS|DCode=41|XSize=88mil|YSize=68mil|CornerRadius=0mil|HoleSize=0mil|Usage=FLASHONLY|Rotation=90.000|XOffset=0mil|YOffset=0mil|HoleType=Round|Shape=Octagon|*
%AMOCTAGOND41*
4,1,8,0.017,0.044,-0.017,0.044,-0.034,0.027,-0.034,-0.027,-0.017,-0.044,0.017,-0.044,0.034,-0.027,0.034,0.027,0.017,0.044,0.0*
%
%ADD41OCTAGOND41*%

%ADD42C,0.043*%
D29*
X5219Y3611D02*
D03*
X5141D02*
D03*
X5011Y3603D02*
D03*
X5089Y3603D02*
D03*
X5269Y3065D02*
D03*
X5191D02*
D03*
X5269Y3165D02*
D03*
X5191D02*
D03*
X5269Y3365D02*
D03*
X5191D02*
D03*
X5224Y2908D02*
D03*
X5146D02*
D03*
X5011Y2983D02*
D03*
X5089Y2983D02*
D03*
X4299Y3505D02*
D03*
X4221Y3505D02*
D03*
X4299Y3435D02*
D03*
X4221Y3435D02*
D03*
X4076Y3620D02*
D03*
X4154D02*
D03*
Y3550D02*
D03*
X4076Y3550D02*
D03*
X4529Y3505D02*
D03*
X4451D02*
D03*
X4640Y3595D02*
D03*
X4561D02*
D03*
X4769D02*
D03*
X4691D02*
D03*
X4769Y3505D02*
D03*
X4691Y3505D02*
D03*
X4769Y3440D02*
D03*
X4691Y3440D02*
D03*
X4511Y2975D02*
D03*
X4589D02*
D03*
X4241Y3040D02*
D03*
X4319Y3040D02*
D03*
X4241Y2970D02*
D03*
X4319Y2970D02*
D03*
X3941Y3170D02*
D03*
X4019D02*
D03*
X3761Y3330D02*
D03*
X3840D02*
D03*
X3471Y2950D02*
D03*
X3549D02*
D03*
X3581Y3560D02*
D03*
X3659D02*
D03*
X4019Y3245D02*
D03*
X3941D02*
D03*
D30*
X5010Y3461D02*
D03*
Y3126D02*
D03*
D31*
X5371Y2906D02*
D03*
X5297D02*
D03*
Y3609D02*
D03*
X5371D02*
D03*
D32*
X4155Y3401D02*
D03*
Y3322D02*
D03*
X4760Y3241D02*
D03*
Y3319D02*
D03*
X4755Y3154D02*
D03*
Y3076D02*
D03*
D33*
X4588Y3087D02*
D03*
X4569D02*
D03*
X4549D02*
D03*
X4529D02*
D03*
X4510D02*
D03*
X4490D02*
D03*
X4470D02*
D03*
X4450D02*
D03*
X4431D02*
D03*
X4411D02*
D03*
X4391D02*
D03*
X4372D02*
D03*
Y3416D02*
D03*
X4391D02*
D03*
X4411D02*
D03*
X4431D02*
D03*
X4450D02*
D03*
X4470D02*
D03*
X4490D02*
D03*
X4510D02*
D03*
X4529D02*
D03*
X4549D02*
D03*
X4569D02*
D03*
X4588D02*
D03*
D34*
X4315Y3143D02*
D03*
Y3163D02*
D03*
Y3183D02*
D03*
Y3202D02*
D03*
Y3222D02*
D03*
Y3242D02*
D03*
Y3261D02*
D03*
Y3281D02*
D03*
Y3301D02*
D03*
Y3320D02*
D03*
Y3340D02*
D03*
Y3360D02*
D03*
X4645D02*
D03*
Y3340D02*
D03*
Y3320D02*
D03*
Y3301D02*
D03*
Y3281D02*
D03*
Y3261D02*
D03*
Y3242D02*
D03*
Y3222D02*
D03*
Y3202D02*
D03*
Y3183D02*
D03*
Y3163D02*
D03*
Y3143D02*
D03*
D35*
X3859Y3210D02*
D03*
X3771Y3173D02*
D03*
Y3247D02*
D03*
D36*
X3395Y3560D02*
D03*
X3505D02*
D03*
D37*
X3405Y3045D02*
D03*
Y3395D02*
D03*
X3620Y3045D02*
D03*
Y3395D02*
D03*
D38*
X3624Y3157D02*
D03*
Y3189D02*
D03*
Y3220D02*
D03*
Y3252D02*
D03*
Y3283D02*
D03*
D39*
X3519Y3134D02*
D03*
Y3307D02*
D03*
D40*
X5375Y3065D02*
D03*
Y3165D02*
D03*
Y3265D02*
D03*
Y3365D02*
D03*
Y3465D02*
D03*
D41*
X4350Y3600D02*
D03*
X4250D02*
D03*
X4290Y2860D02*
D03*
X4390D02*
D03*
X4490D02*
D03*
X4590D02*
D03*
D42*
X3444Y3669D02*
D03*
X5478Y3668D02*
D03*
X5509Y2829D02*
D03*
X3462D02*
D03*
M02*
