G04*
G04 #@! TF.GenerationSoftware,Altium Limited,Altium Designer,19.0.15 (446)*
G04*
G04 Layer_Color=128*
%FSLAX23Y23*%
%MOIN*%
G70*
G01*
G75*
%ADD61C,0.002*%
D61*
X3500Y3134D02*
X3538D01*
X3519Y3115D02*
Y3152D01*
X3500Y3307D02*
X3538D01*
X3519Y3288D02*
Y3326D01*
X5355Y3065D02*
X5395D01*
X5375Y3045D02*
Y3084D01*
X5355Y3165D02*
X5395D01*
X5375Y3145D02*
Y3184D01*
X5355Y3265D02*
X5395D01*
X5375Y3245D02*
Y3284D01*
X5355Y3365D02*
X5395D01*
X5375Y3345D02*
Y3384D01*
X5355Y3465D02*
X5395D01*
X5375Y3445D02*
Y3484D01*
X4330Y3600D02*
X4370D01*
X4350Y3580D02*
Y3620D01*
X4230Y3600D02*
X4270D01*
X4250Y3580D02*
Y3620D01*
X4270Y2860D02*
X4310D01*
X4290Y2840D02*
Y2880D01*
X4370Y2860D02*
X4410D01*
X4390Y2840D02*
Y2880D01*
X4470Y2860D02*
X4510D01*
X4490Y2840D02*
Y2880D01*
X4570Y2860D02*
X4610D01*
X4590Y2840D02*
Y2880D01*
X3907Y3087D02*
X3917D01*
X3912Y3082D02*
Y3092D01*
X3797Y2862D02*
X3807D01*
X3802Y2857D02*
Y2867D01*
X4046Y2948D02*
X4056D01*
X4051Y2943D02*
Y2953D01*
X4240Y3162D02*
X4250D01*
X4245Y3157D02*
Y3167D01*
X4584Y3502D02*
X4594D01*
X4589Y3497D02*
Y3507D01*
X4622Y3502D02*
X4632D01*
X4627Y3497D02*
Y3507D01*
X5086Y3545D02*
X5096D01*
X5091Y3540D02*
Y3550D01*
X5371Y3542D02*
X5381D01*
X5376Y3537D02*
Y3547D01*
X4751Y3017D02*
X4761D01*
X4756Y3012D02*
Y3022D01*
X3615Y2972D02*
X3625D01*
X3620Y2967D02*
Y2977D01*
X4848Y3004D02*
X4865D01*
X4857Y2996D02*
Y3013D01*
X4845Y3563D02*
X4861D01*
X4853Y3555D02*
Y3572D01*
X3501Y3466D02*
X3519D01*
X3510Y3457D02*
Y3474D01*
X3435Y3669D02*
X3453D01*
X3444Y3661D02*
Y3678D01*
X3750Y3496D02*
X3766D01*
X3758Y3487D02*
Y3504D01*
X3839Y3669D02*
X3855D01*
X3847Y3661D02*
Y3678D01*
X4152Y3474D02*
X4168D01*
X4160Y3466D02*
Y3483D01*
X4464Y3604D02*
X4482D01*
X4473Y3595D02*
Y3612D01*
X5470Y3668D02*
X5486D01*
X5478Y3659D02*
Y3677D01*
X5540Y3499D02*
X5556D01*
X5548Y3490D02*
Y3507D01*
X5540Y3316D02*
X5556D01*
X5548Y3307D02*
Y3325D01*
X5540Y3120D02*
X5556D01*
X5548Y3112D02*
Y3128D01*
X5501Y2829D02*
X5517D01*
X5509Y2820D02*
Y2838D01*
X5071Y2829D02*
X5089D01*
X5080Y2820D02*
Y2838D01*
X4735Y2829D02*
X4753D01*
X4744Y2820D02*
Y2838D01*
X4181Y2829D02*
X4199D01*
X4190Y2820D02*
Y2838D01*
X3693Y2829D02*
X3710D01*
X3701Y2820D02*
Y2838D01*
X3454Y2829D02*
X3470D01*
X3462Y2820D02*
Y2838D01*
X3368Y2940D02*
X3385D01*
X3376Y2931D02*
Y2948D01*
X3447Y3212D02*
X3464D01*
X3455Y3204D02*
Y3220D01*
X3381Y3131D02*
X3398D01*
X3389Y3122D02*
Y3139D01*
X3381Y3213D02*
X3398D01*
X3389Y3204D02*
Y3221D01*
X3381Y3297D02*
X3398D01*
X3389Y3289D02*
Y3306D01*
X4823Y3237D02*
X4833D01*
X4828Y3232D02*
Y3242D01*
X4566Y3183D02*
X4576D01*
X4571Y3178D02*
Y3188D01*
X4546Y3360D02*
X4556D01*
X4551Y3355D02*
Y3365D01*
X4566Y3262D02*
X4576D01*
X4571Y3257D02*
Y3267D01*
X5086Y2900D02*
X5096D01*
X5091Y2895D02*
Y2905D01*
X4381Y3262D02*
X4391D01*
X4386Y3257D02*
Y3267D01*
X4236Y3285D02*
X4253D01*
X4245Y3276D02*
Y3293D01*
X5186Y3305D02*
X5196D01*
X5191Y3300D02*
Y3310D01*
X5184Y3225D02*
X5194D01*
X5189Y3220D02*
Y3230D01*
X5186Y2995D02*
X5196D01*
X5191Y2990D02*
Y3000D01*
X4485Y3330D02*
X4495D01*
X4490Y3325D02*
Y3335D01*
X4426Y3295D02*
X4436D01*
X4431Y3290D02*
Y3300D01*
X4425Y3360D02*
X4435D01*
X4430Y3355D02*
Y3365D01*
X4386Y3183D02*
X4396D01*
X4391Y3178D02*
Y3188D01*
X4167Y2950D02*
X4183D01*
X4175Y2941D02*
Y2958D01*
X3832Y3415D02*
X3849D01*
X3840Y3407D02*
Y3424D01*
X4386Y2995D02*
X4396D01*
X4391Y2990D02*
Y3000D01*
X3710Y3090D02*
X3720D01*
X3715Y3085D02*
Y3095D01*
M02*
