G04*
G04 #@! TF.GenerationSoftware,Altium Limited,Altium Designer,19.0.15 (446)*
G04*
G04 Layer_Color=32896*
%FSLAX23Y23*%
%MOIN*%
G70*
G01*
G75*
%ADD13C,0.008*%
%ADD14C,0.010*%
%ADD15C,0.004*%
%ADD16C,0.008*%
%ADD18C,0.006*%
%ADD59R,0.026X0.106*%
%ADD60R,0.008X0.087*%
D13*
X3878Y2916D02*
X3918D01*
Y2944D01*
X3878Y3034D02*
X3918D01*
Y3006D02*
Y3034D01*
X3806Y3068D02*
X3817D01*
X3806Y3112D02*
X3817D01*
X3738Y2962D02*
X3749D01*
X3738Y2918D02*
X3749D01*
X3891Y2843D02*
X3902D01*
X3891Y2887D02*
X3902D01*
X4023Y2887D02*
X4034D01*
X4023Y2843D02*
X4034D01*
D14*
X3856Y2900D02*
G03*
X3856Y2900I-5J0D01*
G01*
D15*
X3751Y3122D02*
X3869D01*
X3751Y3058D02*
X3869D01*
X3686Y2908D02*
X3804D01*
X3686Y2972D02*
X3804D01*
X3836Y2897D02*
X3954D01*
X3836Y2833D02*
X3954D01*
X3971D02*
X4089D01*
X3971Y2897D02*
X4089D01*
D16*
X3979Y3117D02*
Y3363D01*
X4115Y3117D02*
Y3363D01*
X3979D02*
X4115D01*
X3979Y3117D02*
X4115D01*
X3888Y3394D02*
Y3506D01*
X4102D01*
X4104Y3394D02*
Y3506D01*
X3888Y3394D02*
X4102D01*
X4232Y2979D02*
Y3091D01*
X4018Y2979D02*
X4232D01*
X4016D02*
Y3091D01*
X4018D02*
X4232D01*
D18*
X4279Y3270D02*
Y3241D01*
X4277Y3236D01*
X4274Y3232D01*
X4268Y3230D01*
X4264D01*
X4258Y3232D01*
X4255Y3236D01*
X4253Y3241D01*
Y3270D01*
X4277D02*
Y3241D01*
X4275Y3236D01*
X4272Y3232D01*
X4268Y3230D01*
X4285Y3270D02*
X4272D01*
X4258D02*
X4247D01*
X4242Y3262D02*
X4238Y3264D01*
X4233Y3270D01*
Y3230D01*
X4235Y3268D02*
Y3230D01*
X4242D02*
X4225D01*
X3932Y3105D02*
X3937Y3103D01*
X3941Y3099D01*
X3943Y3095D01*
X3945Y3088D01*
Y3082D01*
X3943Y3075D01*
X3941Y3071D01*
X3937Y3067D01*
X3932Y3065D01*
X3928D01*
X3922Y3067D01*
X3918Y3071D01*
X3916Y3075D01*
X3915Y3082D01*
Y3088D01*
X3916Y3095D01*
X3918Y3099D01*
X3922Y3103D01*
X3928Y3105D01*
X3932D01*
X3935Y3103D01*
X3939Y3099D01*
X3941Y3095D01*
X3943Y3088D01*
Y3082D01*
X3941Y3075D01*
X3939Y3071D01*
X3935Y3067D01*
X3932Y3065D01*
X3928D02*
X3924Y3067D01*
X3920Y3071D01*
X3918Y3075D01*
X3916Y3082D01*
Y3088D01*
X3918Y3095D01*
X3920Y3099D01*
X3924Y3103D01*
X3928Y3105D01*
X3937Y3069D02*
Y3071D01*
X3935Y3075D01*
X3932Y3076D01*
X3930D01*
X3926Y3075D01*
X3924Y3071D01*
X3922Y3057D01*
X3920Y3055D01*
X3916D01*
X3915Y3059D01*
Y3061D01*
X3924Y3071D02*
X3922Y3063D01*
X3920Y3059D01*
X3918Y3057D01*
X3916D01*
X3915Y3059D01*
X3909Y3097D02*
X3905Y3099D01*
X3899Y3105D01*
Y3065D01*
X3901Y3103D02*
Y3065D01*
X3909D02*
X3892D01*
X3834Y3190D02*
Y3150D01*
X3832Y3190D02*
Y3150D01*
X3840Y3190D02*
X3817D01*
X3811Y3188D01*
X3810Y3186D01*
X3808Y3182D01*
Y3179D01*
X3810Y3175D01*
X3811Y3173D01*
X3817Y3171D01*
X3832D01*
X3817Y3190D02*
X3813Y3188D01*
X3811Y3186D01*
X3810Y3182D01*
Y3179D01*
X3811Y3175D01*
X3813Y3173D01*
X3817Y3171D01*
X3840Y3150D02*
X3827D01*
X3823Y3171D02*
X3819Y3169D01*
X3817Y3167D01*
X3811Y3154D01*
X3810Y3152D01*
X3808D01*
X3806Y3154D01*
X3819Y3169D02*
X3817Y3165D01*
X3813Y3152D01*
X3811Y3150D01*
X3808D01*
X3806Y3154D01*
Y3156D01*
X3801Y3190D02*
Y3179D01*
Y3182D02*
X3799Y3186D01*
X3795Y3190D01*
X3791D01*
X3782Y3184D01*
X3778D01*
X3776Y3186D01*
X3774Y3190D01*
X3799Y3186D02*
X3795Y3188D01*
X3791D01*
X3782Y3184D01*
X3774Y3190D02*
Y3184D01*
X3776Y3179D01*
X3783Y3169D01*
X3785Y3165D01*
X3787Y3160D01*
Y3150D01*
X3776Y3179D02*
X3785Y3169D01*
X3787Y3165D01*
X3789Y3160D01*
Y3150D01*
X3764Y3030D02*
Y2990D01*
X3762Y3030D02*
Y2990D01*
X3770Y3030D02*
X3747D01*
X3741Y3028D01*
X3740Y3026D01*
X3738Y3022D01*
Y3019D01*
X3740Y3015D01*
X3741Y3013D01*
X3747Y3011D01*
X3762D01*
X3747Y3030D02*
X3743Y3028D01*
X3741Y3026D01*
X3740Y3022D01*
Y3019D01*
X3741Y3015D01*
X3743Y3013D01*
X3747Y3011D01*
X3770Y2990D02*
X3757D01*
X3753Y3011D02*
X3749Y3009D01*
X3747Y3007D01*
X3741Y2994D01*
X3740Y2992D01*
X3738D01*
X3736Y2994D01*
X3749Y3009D02*
X3747Y3005D01*
X3743Y2992D01*
X3741Y2990D01*
X3738D01*
X3736Y2994D01*
Y2996D01*
X3731Y3022D02*
X3727Y3024D01*
X3721Y3030D01*
Y2990D01*
X3723Y3028D02*
Y2990D01*
X3731D02*
X3713D01*
X3814Y2890D02*
Y2850D01*
X3812Y2890D02*
Y2850D01*
X3820Y2890D02*
X3797D01*
X3791Y2888D01*
X3790Y2886D01*
X3788Y2882D01*
Y2879D01*
X3790Y2875D01*
X3791Y2873D01*
X3797Y2871D01*
X3812D01*
X3797Y2890D02*
X3793Y2888D01*
X3791Y2886D01*
X3790Y2882D01*
Y2879D01*
X3791Y2875D01*
X3793Y2873D01*
X3797Y2871D01*
X3820Y2850D02*
X3807D01*
X3803Y2871D02*
X3799Y2869D01*
X3797Y2867D01*
X3791Y2854D01*
X3790Y2852D01*
X3788D01*
X3786Y2854D01*
X3799Y2869D02*
X3797Y2865D01*
X3793Y2852D01*
X3791Y2850D01*
X3788D01*
X3786Y2854D01*
Y2856D01*
X3771Y2890D02*
X3777Y2888D01*
X3779Y2884D01*
Y2879D01*
X3777Y2875D01*
X3771Y2873D01*
X3763D01*
X3758Y2875D01*
X3756Y2879D01*
Y2884D01*
X3758Y2888D01*
X3763Y2890D01*
X3771D01*
X3775Y2888D01*
X3777Y2884D01*
Y2879D01*
X3775Y2875D01*
X3771Y2873D01*
X3763D02*
X3760Y2875D01*
X3758Y2879D01*
Y2884D01*
X3760Y2888D01*
X3763Y2890D01*
X3771Y2873D02*
X3777Y2871D01*
X3779Y2869D01*
X3781Y2865D01*
Y2858D01*
X3779Y2854D01*
X3777Y2852D01*
X3771Y2850D01*
X3763D01*
X3758Y2852D01*
X3756Y2854D01*
X3754Y2858D01*
Y2865D01*
X3756Y2869D01*
X3758Y2871D01*
X3763Y2873D01*
X3771D02*
X3775Y2871D01*
X3777Y2869D01*
X3779Y2865D01*
Y2858D01*
X3777Y2854D01*
X3775Y2852D01*
X3771Y2850D01*
X3763D02*
X3760Y2852D01*
X3758Y2854D01*
X3756Y2858D01*
Y2865D01*
X3758Y2869D01*
X3760Y2871D01*
X3763Y2873D01*
X4164Y2885D02*
Y2845D01*
X4162Y2885D02*
Y2845D01*
X4170Y2885D02*
X4147D01*
X4141Y2883D01*
X4140Y2881D01*
X4138Y2877D01*
Y2874D01*
X4140Y2870D01*
X4141Y2868D01*
X4147Y2866D01*
X4162D01*
X4147Y2885D02*
X4143Y2883D01*
X4141Y2881D01*
X4140Y2877D01*
Y2874D01*
X4141Y2870D01*
X4143Y2868D01*
X4147Y2866D01*
X4170Y2845D02*
X4157D01*
X4153Y2866D02*
X4149Y2864D01*
X4147Y2862D01*
X4141Y2849D01*
X4140Y2847D01*
X4138D01*
X4136Y2849D01*
X4149Y2864D02*
X4147Y2860D01*
X4143Y2847D01*
X4141Y2845D01*
X4138D01*
X4136Y2849D01*
Y2851D01*
X4112Y2881D02*
Y2845D01*
X4100Y2856D02*
X4131D01*
X4110Y2885D01*
Y2845D01*
X4117D02*
X4104D01*
X4013Y3554D02*
X4011Y3549D01*
Y3560D01*
X4013Y3554D01*
X4017Y3558D01*
X4023Y3560D01*
X4027D01*
X4032Y3558D01*
X4036Y3554D01*
X4038Y3550D01*
X4040Y3545D01*
Y3535D01*
X4038Y3530D01*
X4036Y3526D01*
X4032Y3522D01*
X4027Y3520D01*
X4023D01*
X4017Y3522D01*
X4013Y3526D01*
X4011Y3530D01*
X4027Y3560D02*
X4030Y3558D01*
X4034Y3554D01*
X4036Y3550D01*
X4038Y3545D01*
Y3535D01*
X4036Y3530D01*
X4034Y3526D01*
X4030Y3522D01*
X4027Y3520D01*
X3987Y3556D02*
Y3520D01*
X3975Y3531D02*
X4006D01*
X3985Y3560D01*
Y3520D01*
X3992D02*
X3979D01*
X4112Y2927D02*
X4114Y2933D01*
Y2922D01*
X4112Y2927D01*
X4108Y2924D01*
X4102Y2922D01*
X4098D01*
X4093Y2924D01*
X4089Y2927D01*
X4087Y2931D01*
X4085Y2937D01*
Y2946D01*
X4087Y2952D01*
X4089Y2956D01*
X4093Y2960D01*
X4098Y2962D01*
X4102D01*
X4108Y2960D01*
X4112Y2956D01*
X4114Y2952D01*
X4098Y2922D02*
X4095Y2924D01*
X4091Y2927D01*
X4089Y2931D01*
X4087Y2937D01*
Y2946D01*
X4089Y2952D01*
X4091Y2956D01*
X4095Y2960D01*
X4098Y2962D01*
X4121Y2929D02*
X4123Y2931D01*
X4121Y2933D01*
X4119Y2931D01*
Y2929D01*
X4121Y2925D01*
X4123Y2924D01*
X4129Y2922D01*
X4136D01*
X4142Y2924D01*
X4144Y2927D01*
Y2933D01*
X4142Y2937D01*
X4136Y2939D01*
X4131D01*
X4136Y2922D02*
X4140Y2924D01*
X4142Y2927D01*
Y2933D01*
X4140Y2937D01*
X4136Y2939D01*
X4140Y2941D01*
X4144Y2945D01*
X4146Y2948D01*
Y2954D01*
X4144Y2958D01*
X4142Y2960D01*
X4136Y2962D01*
X4129D01*
X4123Y2960D01*
X4121Y2958D01*
X4119Y2954D01*
Y2952D01*
X4121Y2950D01*
X4123Y2952D01*
X4121Y2954D01*
X4142Y2943D02*
X4144Y2948D01*
Y2954D01*
X4142Y2958D01*
X4140Y2960D01*
X4136Y2962D01*
D59*
X3897Y3450D02*
D03*
X4223Y3035D02*
D03*
D60*
X4110Y3450D02*
D03*
X3882Y3450D02*
D03*
X4010Y3035D02*
D03*
X4238Y3035D02*
D03*
M02*
