G04*
G04 #@! TF.GenerationSoftware,Altium Limited,Altium Designer,19.0.15 (446)*
G04*
G04 Layer_Color=65535*
%FSLAX23Y23*%
%MOIN*%
G70*
G01*
G75*
%ADD10C,0.005*%
%ADD11C,0.005*%
%ADD12C,0.001*%
%ADD13C,0.008*%
%ADD14C,0.010*%
%ADD15C,0.004*%
%ADD16C,0.008*%
%ADD17C,0.010*%
%ADD18C,0.006*%
D10*
X3704Y2876D02*
G03*
X3695Y2867I707J-733D01*
G01*
X3709Y2880D02*
G03*
X3704Y2876I59J-71D01*
G01*
X3712Y2883D02*
G03*
X3709Y2880I17J-26D01*
G01*
X3714Y2883D02*
G03*
X3712Y2883I0J-4D01*
G01*
X3717Y2883D02*
G03*
X3714Y2883I-3J-7D01*
G01*
X3719Y2881D02*
G03*
X3717Y2883I-5J-5D01*
G01*
X3721Y2879D02*
G03*
X3719Y2881I-7J-3D01*
G01*
X3721Y2876D02*
G03*
X3721Y2879I-7J0D01*
G01*
X3721Y2873D02*
G03*
X3721Y2876I-4J3D01*
G01*
X3718Y2870D02*
G03*
X3721Y2873I-22J19D01*
G01*
X3713Y2864D02*
G03*
X3718Y2870I-78J77D01*
G01*
X3701Y2853D02*
G03*
X3713Y2864I-1353J1360D01*
G01*
X3693Y2845D02*
G03*
X3701Y2853I-471J489D01*
G01*
X3687Y2839D02*
G03*
X3693Y2845I-222J245D01*
G01*
X3681Y2834D02*
G03*
X3687Y2839I-323J366D01*
G01*
X3679Y2833D02*
G03*
X3681Y2834I-1J4D01*
G01*
X3677Y2833D02*
G03*
X3679Y2833I-1J10D01*
G01*
X3670Y2832D02*
G03*
X3677Y2833I-67J1462D01*
G01*
X3661Y2832D02*
G03*
X3670Y2832I-31J866D01*
G01*
X3650Y2831D02*
G03*
X3661Y2832I-40J1426D01*
G01*
X3583Y2804D02*
G03*
X3590Y2804I8J952D01*
G01*
X3576Y2804D02*
G03*
X3583Y2804I10J481D01*
G01*
X3570Y2804D02*
G03*
X3576Y2804I73J3155D01*
G01*
X3570Y2805D02*
G03*
X3570Y2804I0J0D01*
G01*
X3571Y2806D02*
G03*
X3570Y2805I3J-2D01*
G01*
X3585Y2833D02*
G03*
X3571Y2806I38070J-20037D01*
G01*
X3598Y2859D02*
G03*
X3585Y2833I12297J-6505D01*
G01*
X3601Y2863D02*
G03*
X3598Y2859I26J-19D01*
G01*
X3602Y2864D02*
G03*
X3601Y2863I9J-9D01*
G01*
X3604Y2866D02*
G03*
X3602Y2864I16J-20D01*
G01*
X3606Y2867D02*
G03*
X3604Y2866I15J-21D01*
G01*
X3607Y2868D02*
G03*
X3606Y2867I7J-13D01*
G01*
X3611Y2869D02*
G03*
X3607Y2868I2J-12D01*
G01*
X3615Y2870D02*
G03*
X3611Y2869I2J-33D01*
G01*
X3622Y2870D02*
G03*
X3615Y2870I1J-132D01*
G01*
X3639Y2870D02*
G03*
X3622Y2870I0J-2858D01*
G01*
X3656Y2870D02*
G03*
X3639Y2870I-16J-2609D01*
G01*
X3663Y2870D02*
G03*
X3656Y2870I-8J-154D01*
G01*
X3667Y2869D02*
G03*
X3663Y2870I-7J-46D01*
G01*
X3669Y2869D02*
G03*
X3667Y2869I-3J-3D01*
G01*
X3671Y2867D02*
G03*
X3669Y2869I-5J-2D01*
G01*
X3671Y2864D02*
G03*
X3671Y2867I-7J0D01*
G01*
X3671Y2861D02*
G03*
X3671Y2864I-7J3D01*
G01*
X3669Y2859D02*
G03*
X3671Y2861I-4J4D01*
G01*
X3668Y2858D02*
G03*
X3669Y2859I-2J5D01*
G01*
X3665Y2858D02*
G03*
X3668Y2858I-1J9D01*
G01*
X3662Y2857D02*
G03*
X3665Y2858I-1J32D01*
G01*
X3654Y2857D02*
G03*
X3662Y2857I-1J508D01*
G01*
X3654Y2857D02*
G03*
X3645Y2857I0J-319D01*
G01*
D02*
G03*
X3640Y2856I1J-21D01*
G01*
D02*
G03*
X3639Y2855I1J-2D01*
G01*
X3639D02*
G03*
X3639Y2853I1J-1D01*
G01*
X3639D02*
G03*
X3640Y2852I2J1D01*
G01*
D02*
G03*
X3643Y2852I4J15D01*
G01*
D02*
G03*
X3648Y2852I7J65D01*
G01*
D02*
G03*
X3659Y2851I29J1246D01*
G01*
X4193Y2834D02*
G03*
X4187Y2834I-5J-328D01*
G01*
X4194Y2834D02*
G03*
X4193Y2834I-2J-6D01*
G01*
X4195Y2833D02*
G03*
X4194Y2834I-1J-0D01*
G01*
X4195Y2832D02*
G03*
X4195Y2833I-3J1D01*
G01*
X4195Y2832D02*
G03*
X4195Y2831I25J-6D01*
G01*
D02*
G03*
X4194Y2829I127J-24D01*
G01*
X4194D02*
G03*
X4194Y2827I143J-25D01*
G01*
X4194D02*
G03*
X4194Y2825I129J-21D01*
G01*
X4139Y2857D02*
G03*
X4138Y2861I-508J-67D01*
G01*
D02*
G03*
X4137Y2865I-273J-38D01*
G01*
D02*
G03*
X4137Y2869I-1005J-156D01*
G01*
X4137Y2869D02*
G03*
X4136Y2869I-0J-0D01*
G01*
X4136D02*
G03*
X4136Y2866I82J-18D01*
G01*
Y2866D02*
G03*
X4135Y2862I98J-18D01*
G01*
Y2862D02*
G03*
X4134Y2855I471J-65D01*
G01*
X4134Y2852D02*
G03*
X4134Y2855I-398J53D01*
G01*
X4133Y2848D02*
G03*
X4134Y2852I-355J51D01*
G01*
X4133Y2846D02*
G03*
X4133Y2848I-324J49D01*
G01*
X4133Y2844D02*
G03*
X4133Y2846I-34J7D01*
G01*
X4133Y2844D02*
G03*
X4132Y2842I12J-2D01*
G01*
D02*
G03*
X4133Y2842I1J-0D01*
G01*
D02*
G03*
X4134Y2841I1J1D01*
G01*
D02*
G03*
X4136Y2841I3J54D01*
G01*
D02*
G03*
X4139Y2842I0J10D01*
G01*
X4139Y2842D02*
G03*
X4140Y2843I-0J1D01*
G01*
X4140D02*
G03*
X4140Y2846I-10J2D01*
G01*
D02*
G03*
X4139Y2857I-1253J-153D01*
G01*
X4129Y2898D02*
G03*
X4128Y2897I0J-0D01*
G01*
X4131Y2898D02*
G03*
X4129Y2898I4J-56D01*
G01*
X4133Y2898D02*
G03*
X4131Y2898I0J-42D01*
G01*
X4136Y2898D02*
G03*
X4133Y2898I-3J-83D01*
G01*
X4154Y2846D02*
G03*
X4151Y2860I-7535J-1348D01*
G01*
X4156Y2833D02*
G03*
X4154Y2846I-4060J-713D01*
G01*
X4158Y2822D02*
G03*
X4156Y2833I-18326J-3209D01*
G01*
X4158Y2821D02*
G03*
X4158Y2822I-6J-0D01*
G01*
X4156Y2820D02*
G03*
X4158Y2821I-1J6D01*
G01*
X4154Y2820D02*
G03*
X4156Y2820I-1J17D01*
G01*
X4151Y2820D02*
G03*
X4154Y2820I-0J97D01*
G01*
X4146Y2820D02*
G03*
X4151Y2820I5J237D01*
G01*
X4144Y2821D02*
G03*
X4146Y2820I2J6D01*
G01*
X4143Y2823D02*
G03*
X4144Y2821I4J0D01*
G01*
X4143Y2823D02*
G03*
X4143Y2824I-9J-0D01*
G01*
Y2824D02*
G03*
X4143Y2825I-20J-3D01*
G01*
Y2825D02*
G03*
X4143Y2827I-21J-4D01*
G01*
X4143D02*
G03*
X4142Y2828I-12J-3D01*
G01*
X4142D02*
G03*
X4142Y2829I-7J-3D01*
G01*
X4141D02*
G03*
X4141Y2830I-2J-1D01*
G01*
X4141D02*
G03*
X4139Y2830I-1J-4D01*
G01*
Y2830D02*
G03*
X4136Y2830I1J-68D01*
G01*
Y2830D02*
G03*
X4133Y2830I4J-67D01*
G01*
Y2830D02*
G03*
X4132Y2829I0J-4D01*
G01*
Y2829D02*
G03*
X4131Y2829I1J-1D01*
G01*
D02*
G03*
X4130Y2827I5J-2D01*
G01*
X4130Y2823D02*
G03*
X4130Y2827I-68J12D01*
G01*
X4129Y2821D02*
G03*
X4130Y2823I-2J2D01*
G01*
X4127Y2820D02*
G03*
X4129Y2821I-0J3D01*
G01*
X4122Y2820D02*
G03*
X4127Y2820I-0J111D01*
G01*
X4117Y2820D02*
G03*
X4122Y2820I5J267D01*
G01*
X4115Y2821D02*
G03*
X4117Y2820I2J5D01*
G01*
X4115Y2822D02*
G03*
X4115Y2821I3J-1D01*
G01*
X4115Y2822D02*
G03*
X4116Y2827I-106J24D01*
G01*
D02*
G03*
X4122Y2861I-68860J12451D01*
G01*
X4128Y2896D02*
G03*
X4128Y2897I-8J1D01*
G01*
X4098Y2898D02*
G03*
X4086Y2898I-12J-359D01*
G01*
X4104Y2897D02*
G03*
X4098Y2898I-6J-22D01*
G01*
X4107Y2895D02*
G03*
X4104Y2897I-5J-4D01*
G01*
X4109Y2891D02*
G03*
X4107Y2895I-9J-3D01*
G01*
X4110Y2885D02*
G03*
X4109Y2891I-24J-0D01*
G01*
X4110Y2860D02*
G03*
X4110Y2885I-3114J-5D01*
G01*
X4110Y2835D02*
G03*
X4110Y2860I-2703J21D01*
G01*
X4109Y2828D02*
G03*
X4110Y2835I-31J7D01*
G01*
X4108Y2824D02*
G03*
X4109Y2828I-13J8D01*
G01*
X4105Y2822D02*
G03*
X4108Y2824I-1J4D01*
G01*
X4101Y2821D02*
G03*
X4105Y2822I-1J16D01*
G01*
X4088Y2820D02*
G03*
X4101Y2821I-10J581D01*
G01*
X4052Y2820D02*
G03*
X4055Y2820I3J232D01*
G01*
X4050Y2820D02*
G03*
X4052Y2820I4J117D01*
G01*
X4047Y2820D02*
G03*
X4050Y2820I18J460D01*
G01*
X4047Y2820D02*
G03*
X4047Y2822I-6J0D01*
G01*
D02*
G03*
X4043Y2837I-8640J-2300D01*
G01*
D02*
G03*
X4039Y2851I-16871J-4521D01*
G01*
X4039D02*
G03*
X4039Y2852I-2J-0D01*
G01*
X4039Y2852D02*
G03*
X4038Y2848I572J-25D01*
G01*
D02*
G03*
X4038Y2843I222J-8D01*
G01*
D02*
G03*
X4038Y2836I473J-6D01*
G01*
X3999Y2857D02*
G03*
X3999Y2861I-239J-27D01*
G01*
D02*
G03*
X3998Y2865I-153J-20D01*
G01*
D02*
G03*
X3998Y2868I-201J-31D01*
G01*
D02*
G03*
X3997Y2869I-3J-1D01*
G01*
X3997Y2869D02*
G03*
X3995Y2857I2164J-336D01*
G01*
D02*
G03*
X3993Y2846I719J-108D01*
G01*
D02*
G03*
X3993Y2842I30J-4D01*
G01*
X3993Y2842D02*
G03*
X3994Y2841I3J9D01*
G01*
D02*
G03*
X3996Y2841I2J12D01*
G01*
D02*
G03*
X3997Y2841I2J23D01*
G01*
D02*
G03*
X4000Y2841I-0J50D01*
G01*
D02*
G03*
X4001Y2842I-0J2D01*
G01*
X4001Y2842D02*
G03*
X4001Y2843I-5J0D01*
G01*
X4001Y2845D02*
G03*
X4001Y2843I16J2D01*
G01*
X4000Y2848D02*
G03*
X4001Y2845I378J50D01*
G01*
X4000Y2852D02*
G03*
X4000Y2848I362J44D01*
G01*
X3999Y2857D02*
G03*
X4000Y2852I490J55D01*
G01*
X3990Y2898D02*
G03*
X3989Y2897I0J-1D01*
G01*
X3997Y2898D02*
G03*
X3990Y2898I9J-243D01*
G01*
X4004Y2898D02*
G03*
X3997Y2898I2J-253D01*
G01*
X4005Y2898D02*
G03*
X4004Y2898I-1J0D01*
G01*
X4005Y2898D02*
G03*
X4005Y2896I9J-0D01*
G01*
X4005D02*
G03*
X4012Y2860I190732J34341D01*
G01*
X4012D02*
G03*
X4018Y2825I111895J20168D01*
G01*
D02*
G03*
X4019Y2822I26J5D01*
G01*
X4019Y2821D02*
G03*
X4019Y2822I-1J1D01*
G01*
X4018Y2820D02*
G03*
X4019Y2821I-0J1D01*
G01*
X4016Y2820D02*
G03*
X4018Y2820I-0J8D01*
G01*
X4012Y2820D02*
G03*
X4016Y2820I0J198D01*
G01*
X4004Y2824D02*
G03*
X4003Y2828I-68J-11D01*
G01*
D02*
G03*
X4002Y2829I-3J-1D01*
G01*
D02*
G03*
X4001Y2830I-2J-2D01*
G01*
D02*
G03*
X3997Y2830I-4J-51D01*
G01*
X3980Y2820D02*
G03*
X3983Y2820I3J68D01*
G01*
X3977Y2820D02*
G03*
X3980Y2820I3J24D01*
G01*
X3976Y2821D02*
G03*
X3977Y2820I4J17D01*
G01*
X3975Y2821D02*
G03*
X3976Y2821I0J0D01*
G01*
X3975Y2823D02*
G03*
X3975Y2821I11J-2D01*
G01*
X3982Y2859D02*
G03*
X3975Y2823I137606J-24597D01*
G01*
X3988Y2895D02*
G03*
X3982Y2859I107006J-19164D01*
G01*
X3989Y2897D02*
G03*
X3988Y2895I17J-6D01*
G01*
X3940Y2882D02*
G03*
X3941Y2876I606J158D01*
G01*
X3941D02*
G03*
X3943Y2871I334J91D01*
G01*
X3943D02*
G03*
X3944Y2866I943J272D01*
G01*
X3944Y2866D02*
G03*
X3945Y2866I0J0D01*
G01*
X3945D02*
G03*
X3946Y2870I-474J150D01*
G01*
D02*
G03*
X3948Y2875I-184J57D01*
G01*
X3948D02*
G03*
X3949Y2882I-388J107D01*
G01*
X3955Y2838D02*
G03*
X3955Y2845I-446J0D01*
G01*
D02*
G03*
X3955Y2851I-207J-3D01*
G01*
D02*
G03*
X3955Y2856I-444J-19D01*
G01*
X3955D02*
G03*
X3954Y2856I-0J-0D01*
G01*
D02*
G03*
X3954Y2855I1J-1D01*
G01*
D02*
G03*
X3953Y2851I552J-201D01*
G01*
D02*
G03*
X3951Y2846I253J-90D01*
G01*
Y2846D02*
G03*
X3949Y2841I446J-149D01*
G01*
X3899Y2893D02*
G03*
X3898Y2894I-642J-122D01*
G01*
X3899Y2891D02*
G03*
X3899Y2893I-1214J-228D01*
G01*
X3899Y2889D02*
G03*
X3899Y2891I-1193J-222D01*
G01*
X3900Y2887D02*
G03*
X3899Y2889I-541J-99D01*
G01*
X3820Y2898D02*
G03*
X3814Y2898I-6J-249D01*
G01*
X3825Y2898D02*
G03*
X3820Y2898I-10J-179D01*
G01*
X3830Y2898D02*
G03*
X3825Y2898I-15J-188D01*
G01*
X3832Y2897D02*
G03*
X3830Y2898I-3J-7D01*
G01*
X3835Y2895D02*
G03*
X3832Y2897I-6J-6D01*
G01*
X3837Y2892D02*
G03*
X3835Y2895I-7J-2D01*
G01*
X3838Y2886D02*
G03*
X3837Y2892I-30J-1D01*
G01*
X3838Y2872D02*
G03*
X3838Y2886I-705J-10D01*
G01*
X3838Y2858D02*
G03*
X3838Y2872I-679J4D01*
G01*
X3838Y2851D02*
G03*
X3838Y2858I-38J7D01*
G01*
X3836Y2848D02*
G03*
X3838Y2851I-8J5D01*
G01*
X3833Y2846D02*
G03*
X3836Y2848I-2J6D01*
G01*
X3833Y2846D02*
G03*
X3833Y2845I3J-6D01*
G01*
X3833D02*
G03*
X3832Y2845I3J-4D01*
G01*
X3832D02*
G03*
X3831Y2844I3J-3D01*
G01*
X3831Y2844D02*
G03*
X3831Y2843I3J0D01*
G01*
D02*
G03*
X3832Y2840I360J107D01*
G01*
D02*
G03*
X3833Y2836I214J65D01*
G01*
D02*
G03*
X3835Y2832I352J114D01*
G01*
X3836Y2828D02*
G03*
X3835Y2832I-464J-152D01*
G01*
X3837Y2825D02*
G03*
X3836Y2828I-270J-84D01*
G01*
X3838Y2822D02*
G03*
X3837Y2825I-575J-176D01*
G01*
X3838Y2821D02*
G03*
X3838Y2822I-2J0D01*
G01*
X3836Y2820D02*
G03*
X3838Y2821I-5J45D01*
G01*
X3834Y2820D02*
G03*
X3836Y2820I-1J36D01*
G01*
X3831Y2820D02*
G03*
X3834Y2820I0J70D01*
G01*
X3820Y2832D02*
G03*
X3821Y2828I2231J667D01*
G01*
X3819Y2836D02*
G03*
X3820Y2832I2598J773D01*
G01*
X3818Y2839D02*
G03*
X3819Y2836I2328J689D01*
G01*
X3817Y2841D02*
G03*
X3818Y2839I504J147D01*
G01*
X3817Y2841D02*
G03*
X3817Y2843I-15J-4D01*
G01*
D02*
G03*
X3816Y2844I-9J-4D01*
G01*
D02*
G03*
X3815Y2845I-6J-4D01*
G01*
X3815Y2845D02*
G03*
X3814Y2845I0J-1D01*
G01*
D02*
G03*
X3814Y2843I13J-4D01*
G01*
D02*
G03*
X3813Y2839I40J-4D01*
G01*
D02*
G03*
X3813Y2833I363J-6D01*
G01*
X3774Y2848D02*
G03*
X3773Y2855I-161J-16D01*
G01*
D02*
G03*
X3772Y2862I-392J-54D01*
G01*
D02*
G03*
X3771Y2870I-849J-134D01*
G01*
D02*
G03*
X3770Y2870I-0J-0D01*
G01*
X3770D02*
G03*
X3770Y2869I14J-2D01*
G01*
X3770Y2869D02*
G03*
X3770Y2866I6074J-826D01*
G01*
Y2866D02*
G03*
X3769Y2862I2502J-339D01*
G01*
X3769D02*
G03*
X3769Y2858I4376J-586D01*
G01*
X3768Y2853D02*
G03*
X3769Y2858I-1301J178D01*
G01*
X3768Y2849D02*
G03*
X3768Y2853I-1022J144D01*
G01*
X3767Y2846D02*
G03*
X3768Y2849I-1004J145D01*
G01*
X3767Y2844D02*
G03*
X3767Y2846I-60J10D01*
G01*
X3767Y2844D02*
G03*
X3767Y2842I12J-2D01*
G01*
X3767Y2842D02*
G03*
X3768Y2841I1J1D01*
G01*
D02*
G03*
X3770Y2841I3J52D01*
G01*
X3763Y2898D02*
G03*
X3762Y2898I0J-0D01*
G01*
X3765Y2898D02*
G03*
X3763Y2898I4J-67D01*
G01*
X3767Y2898D02*
G03*
X3765Y2898I-0J-46D01*
G01*
X3770Y2898D02*
G03*
X3767Y2898I-3J-91D01*
G01*
X3788Y2846D02*
G03*
X3785Y2861I-5348J-963D01*
G01*
X3790Y2834D02*
G03*
X3788Y2846I-2961J-520D01*
G01*
X3792Y2823D02*
G03*
X3790Y2834I-9544J-1666D01*
G01*
X3792Y2822D02*
G03*
X3792Y2823I-9J-0D01*
G01*
X3792Y2821D02*
G03*
X3792Y2822I-1J1D01*
G01*
X3791Y2821D02*
G03*
X3792Y2821I-0J2D01*
G01*
X3789Y2820D02*
G03*
X3791Y2821I-0J10D01*
G01*
X3785Y2820D02*
G03*
X3789Y2820I-0J162D01*
G01*
X3777Y2823D02*
G03*
X3777Y2827I-40J-0D01*
G01*
X3777D02*
G03*
X3776Y2829I-3J-0D01*
G01*
X3776Y2829D02*
G03*
X3774Y2830I-2J-2D01*
G01*
Y2830D02*
G03*
X3770Y2830I-2J-30D01*
G01*
Y2830D02*
G03*
X3767Y2830I4J-83D01*
G01*
D02*
G03*
X3766Y2829I0J-4D01*
G01*
D02*
G03*
X3765Y2829I1J-1D01*
G01*
D02*
G03*
X3764Y2827I4J-2D01*
G01*
X3764Y2823D02*
G03*
X3764Y2827I-67J12D01*
G01*
X3763Y2821D02*
G03*
X3764Y2823I-2J2D01*
G01*
X3761Y2820D02*
G03*
X3763Y2821I-0J3D01*
G01*
X3756Y2820D02*
G03*
X3761Y2820I-0J113D01*
G01*
X3751Y2820D02*
G03*
X3756Y2820I4J200D01*
G01*
X3749Y2820D02*
G03*
X3751Y2820I2J8D01*
G01*
X3749Y2821D02*
G03*
X3749Y2820I1J1D01*
G01*
X3749Y2822D02*
G03*
X3749Y2821I1J-0D01*
G01*
X3749Y2822D02*
G03*
X3749Y2825I-24J7D01*
G01*
D02*
G03*
X3756Y2860I-100206J18085D01*
G01*
X3756D02*
G03*
X3762Y2896I-162466J29262D01*
G01*
X3762D02*
G03*
X3762Y2898I-10J2D01*
G01*
X3656Y2937D02*
G03*
X3656Y2934I54J-6D01*
G01*
X3657Y2939D02*
G03*
X3656Y2937I9J-3D01*
G01*
X3657Y2940D02*
G03*
X3657Y2939I2J-2D01*
G01*
X3658Y2940D02*
G03*
X3657Y2940I0J-1D01*
G01*
X3659Y2939D02*
G03*
X3658Y2940I-2J-1D01*
G01*
X3659Y2937D02*
G03*
X3659Y2939I-9J-0D01*
G01*
X3659Y2934D02*
G03*
X3659Y2937I-68J-0D01*
G01*
X3667Y2938D02*
G03*
X3667Y2934I103J-3D01*
G01*
X3668Y2939D02*
G03*
X3667Y2938I5J-2D01*
G01*
X3668Y2940D02*
G03*
X3668Y2939I1J-1D01*
G01*
X3669Y2940D02*
G03*
X3668Y2940I0J-2D01*
G01*
X3670D02*
G03*
X3669Y2940I-1J-2D01*
G01*
X3671Y2939D02*
G03*
X3670Y2940I-1J-0D01*
G01*
X3671Y2938D02*
G03*
X3671Y2939I-5J-0D01*
G01*
X3671Y2934D02*
G03*
X3671Y2938I-103J0D01*
G01*
X3691Y2918D02*
G03*
X3687Y2918I-3J-103D01*
G01*
X3692Y2918D02*
G03*
X3691Y2918I-2J-5D01*
G01*
X3693Y2917D02*
G03*
X3692Y2918I-1J-1D01*
G01*
X3693Y2916D02*
G03*
X3693Y2917I-2J0D01*
G01*
Y2915D02*
G03*
X3693Y2916I-2J1D01*
G01*
X3692Y2915D02*
G03*
X3693Y2915I-0J1D01*
G01*
X3691Y2914D02*
G03*
X3692Y2915I-0J5D01*
G01*
X3687Y2914D02*
G03*
X3691Y2914I0J103D01*
G01*
Y2906D02*
G03*
X3687Y2906I-3J-103D01*
G01*
X3692Y2906D02*
G03*
X3691Y2906I-2J-5D01*
G01*
X3693Y2905D02*
G03*
X3692Y2906I-1J-1D01*
G01*
X3693Y2904D02*
G03*
X3693Y2905I-2J0D01*
G01*
Y2903D02*
G03*
X3693Y2904I-2J1D01*
G01*
X3692Y2903D02*
G03*
X3693Y2903I-0J1D01*
G01*
X3691Y2902D02*
G03*
X3692Y2903I-0J5D01*
G01*
X3687Y2902D02*
G03*
X3691Y2902I0J103D01*
G01*
X3671Y2884D02*
G03*
X3671Y2887I-79J7D01*
G01*
X3671Y2882D02*
G03*
X3671Y2884I-5J2D01*
G01*
X3670Y2881D02*
G03*
X3671Y2882I-1J1D01*
G01*
X3669Y2881D02*
G03*
X3670Y2881I0J2D01*
G01*
X3668Y2881D02*
G03*
X3669Y2881I1J2D01*
G01*
X3668Y2882D02*
G03*
X3668Y2881I1J0D01*
G01*
X3667Y2884D02*
G03*
X3668Y2882I6J0D01*
G01*
X3667Y2887D02*
G03*
X3667Y2884I103J0D01*
G01*
X3659Y2884D02*
G03*
X3659Y2887I-54J6D01*
G01*
X3659Y2882D02*
G03*
X3659Y2884I-9J3D01*
G01*
X3658Y2882D02*
G03*
X3659Y2882I-2J2D01*
G01*
X3658Y2881D02*
G03*
X3658Y2882I0J1D01*
G01*
X3657Y2882D02*
G03*
X3658Y2881I1J1D01*
G01*
X3656Y2884D02*
G03*
X3657Y2882I9J0D01*
G01*
X3656Y2887D02*
G03*
X3656Y2884I68J0D01*
G01*
X3637Y2902D02*
G03*
X3640Y2902I3J103D01*
G01*
X3635Y2903D02*
G03*
X3637Y2902I2J5D01*
G01*
X3634Y2904D02*
G03*
X3635Y2903I2J0D01*
G01*
Y2905D02*
G03*
X3634Y2904I2J-1D01*
G01*
X3635Y2906D02*
G03*
X3635Y2905I0J-1D01*
G01*
X3637Y2906D02*
G03*
X3635Y2906I0J-5D01*
G01*
X3640Y2906D02*
G03*
X3637Y2906I-0J-103D01*
G01*
Y2914D02*
G03*
X3640Y2914I3J103D01*
G01*
X3635Y2915D02*
G03*
X3637Y2914I2J5D01*
G01*
X3634Y2916D02*
G03*
X3635Y2915I2J0D01*
G01*
Y2917D02*
G03*
X3634Y2916I2J-1D01*
G01*
X3635Y2918D02*
G03*
X3635Y2917I0J-1D01*
G01*
X3637Y2918D02*
G03*
X3635Y2918I0J-5D01*
G01*
X3640Y2918D02*
G03*
X3637Y2918I-0J-103D01*
G01*
X3656Y2910D02*
Y2918D01*
X3664D01*
X3671D01*
Y2910D02*
Y2918D01*
Y2902D02*
Y2910D01*
X3664Y2902D02*
X3671D01*
X3656D02*
X3664D01*
X3656D02*
Y2910D01*
X3624Y2831D02*
X3650Y2831D01*
X3617Y2817D02*
X3624Y2831D01*
X3610Y2804D02*
X3617Y2817D01*
X3590Y2804D02*
X3610D01*
X3659Y2851D02*
X3679Y2851D01*
X3695Y2867D01*
X4164Y2859D02*
Y2898D01*
X4172D01*
X4179D01*
Y2866D02*
Y2898D01*
Y2834D02*
Y2866D01*
Y2834D02*
X4187D01*
X4193Y2820D02*
X4194Y2825D01*
X4179Y2820D02*
X4193D01*
X4164D02*
X4179D01*
X4164D02*
Y2859D01*
X4136Y2898D02*
X4145Y2898D01*
X4151Y2860D01*
X4095Y2859D02*
Y2885D01*
X4090Y2885D02*
X4095Y2885D01*
X4085Y2885D02*
X4090Y2885D01*
X4085Y2859D02*
Y2885D01*
Y2833D02*
Y2859D01*
Y2833D02*
X4090Y2833D01*
X4095Y2834D01*
Y2859D01*
X4070Y2859D02*
Y2898D01*
X4086D01*
X4070Y2820D02*
X4088Y2820D01*
X4070Y2820D02*
Y2859D01*
X4024Y2859D02*
Y2898D01*
X4032D01*
X4039D01*
X4043Y2882D01*
X4047Y2867D01*
X4047Y2882D01*
X4047Y2898D01*
X4055D01*
X4063D01*
Y2859D02*
Y2898D01*
Y2820D02*
Y2859D01*
X4055Y2820D02*
X4063D01*
X4038D02*
Y2836D01*
X4031Y2820D02*
X4038D01*
X4024D02*
X4031D01*
X4024D02*
Y2859D01*
X4004Y2820D02*
X4012D01*
X4004Y2824D02*
X4004Y2820D01*
X3991Y2830D02*
X3997D01*
X3991Y2825D02*
X3991Y2830D01*
X3990Y2820D02*
X3991Y2825D01*
X3983Y2820D02*
X3990D01*
X3919Y2859D02*
Y2898D01*
X3927Y2898D01*
X3936Y2898D01*
X3940Y2882D01*
X3949Y2882D02*
X3954Y2898D01*
X3961D01*
X3969D01*
Y2859D02*
Y2898D01*
Y2820D02*
Y2859D01*
X3962Y2820D02*
X3969D01*
X3955D02*
X3962D01*
X3955D02*
Y2838D01*
X3945Y2827D02*
X3949Y2841D01*
X3940Y2842D02*
X3945Y2827D01*
X3934Y2858D02*
X3940Y2842D01*
X3934Y2839D02*
X3934Y2858D01*
X3934Y2820D02*
X3934Y2839D01*
X3927Y2820D02*
X3934D01*
X3919D02*
X3927D01*
X3919D02*
Y2859D01*
X3868Y2859D02*
Y2898D01*
X3883Y2898D01*
X3898Y2898D01*
X3898Y2894D01*
X3900Y2887D02*
X3900Y2884D01*
X3892D02*
X3900D01*
X3883D02*
X3892D01*
X3883Y2874D02*
Y2884D01*
Y2864D02*
Y2874D01*
Y2864D02*
X3890D01*
X3896D01*
Y2858D02*
Y2864D01*
Y2852D02*
Y2858D01*
X3890Y2852D02*
X3896D01*
X3883D02*
X3890D01*
X3883Y2836D02*
Y2852D01*
Y2820D02*
Y2836D01*
X3876Y2820D02*
X3883D01*
X3868D02*
X3876D01*
X3868D02*
Y2859D01*
X3845Y2859D02*
Y2898D01*
X3853D01*
X3860D01*
Y2859D02*
Y2898D01*
Y2820D02*
Y2859D01*
X3853Y2820D02*
X3860D01*
X3845D02*
X3853D01*
X3845D02*
Y2859D01*
X3823Y2871D02*
Y2885D01*
X3818Y2885D02*
X3823Y2885D01*
X3813Y2885D02*
X3818Y2885D01*
X3813Y2871D02*
Y2885D01*
Y2857D02*
Y2871D01*
Y2857D02*
X3818Y2857D01*
X3823Y2858D01*
Y2871D01*
X3798Y2859D02*
Y2898D01*
X3814D01*
X3823Y2820D02*
X3831D01*
X3821Y2828D02*
X3823Y2820D01*
X3813D02*
Y2833D01*
X3806Y2820D02*
X3813D01*
X3798D02*
X3806D01*
X3798D02*
Y2859D01*
X3770Y2841D02*
X3774D01*
X3774Y2848D02*
X3774Y2841D01*
X3770Y2898D02*
X3779Y2898D01*
X3785Y2861D01*
X3777Y2820D02*
X3785D01*
X3777Y2823D02*
X3777Y2820D01*
X3677Y2911D02*
Y2924D01*
X3664D02*
X3677D01*
X3650D02*
X3664D01*
X3650Y2911D02*
Y2924D01*
Y2897D02*
Y2911D01*
Y2897D02*
X3664D01*
X3677D01*
Y2911D01*
X3659Y2928D02*
Y2934D01*
Y2928D02*
X3663D01*
X3667D01*
Y2934D01*
X3671Y2928D02*
Y2934D01*
Y2928D02*
X3676D01*
X3681D01*
Y2923D02*
Y2928D01*
Y2918D02*
Y2923D01*
Y2918D02*
X3687D01*
X3681Y2914D02*
X3687D01*
X3681Y2910D02*
Y2914D01*
Y2906D02*
Y2910D01*
Y2906D02*
X3687D01*
X3681Y2902D02*
X3687D01*
X3681Y2898D02*
Y2902D01*
Y2893D02*
Y2898D01*
X3677Y2893D02*
X3681Y2893D01*
X3672Y2893D02*
X3677Y2893D01*
X3671Y2887D02*
X3672Y2893D01*
X3667Y2887D02*
Y2893D01*
X3664Y2893D02*
X3667Y2893D01*
X3660Y2893D02*
X3664Y2893D01*
X3659Y2887D02*
X3660Y2893D01*
X3656Y2887D02*
Y2893D01*
X3651D02*
X3656D01*
X3646D02*
X3651D01*
X3646D02*
Y2898D01*
Y2902D01*
X3640D02*
X3646D01*
X3640Y2906D02*
X3646D01*
Y2910D01*
Y2914D01*
X3640D02*
X3646D01*
X3640Y2918D02*
X3646D01*
Y2923D01*
Y2928D01*
X3651Y2928D01*
X3656Y2929D01*
X3656Y2934D01*
X4338Y3110D02*
X4354D01*
X4338D02*
Y3125D01*
Y3378D02*
Y3393D01*
X4354D01*
X4606D02*
X4622D01*
Y3378D02*
Y3393D01*
Y3110D02*
Y3125D01*
X4606Y3110D02*
X4622D01*
X3289Y3069D02*
X3343D01*
X3289D02*
Y3372D01*
X3343D01*
X3651Y3094D02*
Y3138D01*
Y3303D02*
Y3347D01*
X3467Y3069D02*
X3558D01*
X3467Y3372D02*
X3558D01*
D11*
X4137Y2869D02*
D03*
X4158Y2821D02*
D03*
X4144Y2821D02*
D03*
X4115Y2821D02*
D03*
X4047Y2820D02*
D03*
X4039Y2852D02*
D03*
X3997Y2869D02*
D03*
X3993Y2842D02*
D03*
X4001Y2842D02*
D03*
X3944Y2866D02*
D03*
X3831Y2844D02*
D03*
X3838Y2821D02*
D03*
X3815Y2845D02*
D03*
X3767Y2842D02*
D03*
X3658Y2940D02*
D03*
X3657Y2882D02*
D03*
X3635Y2903D02*
D03*
Y2915D02*
D03*
D12*
X7555Y76531D02*
G03*
X7551Y76512I147806J-26651D01*
G01*
D13*
X4722Y3135D02*
G03*
X4722Y3135I-6J0D01*
G01*
X3700Y3283D02*
G03*
X3700Y3283I-4J0D01*
G01*
X5173Y3590D02*
X5184D01*
X5173Y3633D02*
X5184D01*
X4912Y3067D02*
Y3520D01*
X4951D01*
X5108Y3067D02*
Y3520D01*
X4912Y3067D02*
X4951D01*
X5069D02*
X5108D01*
X5069Y3520D02*
X5108D01*
X4912Y3096D02*
X4951D01*
X5069D02*
X5108D01*
X5044Y3625D02*
X5056D01*
X5044Y3582D02*
X5056D01*
X5223Y3043D02*
X5234D01*
X5223Y3086D02*
X5234D01*
X5223Y3143D02*
X5234D01*
X5223Y3186D02*
X5234D01*
X5223Y3343D02*
X5234D01*
X5223Y3386D02*
X5234D01*
X5178Y2887D02*
X5189D01*
X5178Y2930D02*
X5189D01*
X5044Y3005D02*
X5056D01*
X5044Y2962D02*
X5056D01*
X4177Y3354D02*
Y3366D01*
X4133Y3354D02*
Y3366D01*
X4254Y3483D02*
X4266D01*
X4254Y3527D02*
X4266D01*
X4254Y3413D02*
X4266D01*
X4254Y3457D02*
X4266D01*
X4111Y3642D02*
X4122D01*
X4111Y3598D02*
X4122D01*
X4109Y3528D02*
X4121D01*
X4109Y3572D02*
X4121D01*
X4483Y3483D02*
X4494D01*
X4483Y3527D02*
X4494D01*
X4593Y3573D02*
X4605D01*
X4593Y3617D02*
X4605D01*
X4723Y3573D02*
X4734D01*
X4723Y3617D02*
X4734D01*
X4724Y3483D02*
X4736D01*
X4724Y3527D02*
X4736D01*
X4724Y3418D02*
X4736D01*
X4724Y3462D02*
X4736D01*
X4738Y3276D02*
Y3287D01*
X4782Y3276D02*
Y3287D01*
X4777Y3108D02*
Y3119D01*
X4733Y3108D02*
Y3119D01*
X4546Y2997D02*
X4557D01*
X4546Y2953D02*
X4557D01*
X4274Y3062D02*
X4286D01*
X4274Y3018D02*
X4286D01*
X4274Y2992D02*
X4286D01*
X4274Y2948D02*
X4286D01*
X3976Y3192D02*
X3987D01*
X3976Y3148D02*
X3987D01*
X3843Y3151D02*
Y3182D01*
X3807Y3151D02*
X3843D01*
Y3238D02*
Y3269D01*
X3807D02*
X3843D01*
X3793Y3352D02*
X3805D01*
X3793Y3309D02*
X3805D01*
X3506Y2972D02*
X3517D01*
X3506Y2928D02*
X3517D01*
X3616Y3582D02*
X3627D01*
X3616Y3538D02*
X3627D01*
X3976Y3223D02*
X3987D01*
X3976Y3267D02*
X3987D01*
D14*
X3873Y3243D02*
G03*
X3873Y3243I-5J0D01*
G01*
D15*
X5121Y3643D02*
X5239D01*
X5121Y3579D02*
X5239D01*
X5110Y3573D02*
Y3633D01*
X4990Y3573D02*
Y3633D01*
X5171Y3097D02*
X5289D01*
X5171Y3033D02*
X5289D01*
X5171Y3197D02*
X5289D01*
X5171Y3133D02*
X5289D01*
X5171Y3397D02*
X5289D01*
X5171Y3333D02*
X5289D01*
X5126Y2940D02*
X5244D01*
X5126Y2876D02*
X5244D01*
X5110Y2953D02*
Y3013D01*
X4990Y2953D02*
Y3013D01*
X4123Y3302D02*
Y3420D01*
X4187Y3302D02*
Y3420D01*
X4200Y3475D02*
Y3535D01*
X4320Y3475D02*
Y3535D01*
X4200Y3405D02*
Y3465D01*
X4320Y3405D02*
Y3465D01*
X4056Y3588D02*
X4174D01*
X4056Y3652D02*
X4174D01*
X4055Y3520D02*
Y3580D01*
X4175Y3520D02*
Y3580D01*
X4431Y3537D02*
X4549D01*
X4431Y3473D02*
X4549D01*
X4542Y3627D02*
X4660D01*
X4542Y3563D02*
X4660D01*
X4671Y3627D02*
X4789D01*
X4671Y3563D02*
X4789D01*
X4670Y3475D02*
Y3535D01*
X4790Y3475D02*
Y3535D01*
X4670Y3410D02*
Y3470D01*
X4790Y3410D02*
Y3470D01*
X4792Y3221D02*
Y3339D01*
X4728Y3221D02*
Y3339D01*
X4723Y3056D02*
Y3174D01*
X4787Y3056D02*
Y3174D01*
X4491Y2943D02*
X4609D01*
X4491Y3007D02*
X4609D01*
X4340Y3010D02*
Y3070D01*
X4220Y3010D02*
Y3070D01*
X4340Y2940D02*
Y3000D01*
X4220Y2940D02*
Y3000D01*
X3921Y3138D02*
X4039D01*
X3921Y3202D02*
X4039D01*
X3741Y3298D02*
X3859D01*
X3741Y3362D02*
X3859D01*
X3451Y2918D02*
X3569D01*
X3451Y2982D02*
X3569D01*
X3561Y3528D02*
X3679D01*
X3561Y3592D02*
X3679D01*
X3921Y3277D02*
X4039D01*
X3921Y3213D02*
X4039D01*
D16*
X5263Y2866D02*
X5405D01*
X5263Y2946D02*
X5405D01*
Y2866D02*
Y2946D01*
X5263Y2866D02*
Y2946D01*
X5425Y2866D02*
Y2946D01*
X5405D02*
X5425D01*
X5405Y2866D02*
X5424D01*
X3335Y3608D02*
X3355D01*
X3335Y3512D02*
X3355D01*
X3335D02*
Y3608D01*
X3545Y3512D02*
Y3608D01*
X3355D02*
X3545D01*
X3355Y3512D02*
Y3608D01*
Y3512D02*
X3545D01*
X5325Y3040D02*
Y3090D01*
X5350Y3115D01*
X5400D02*
X5425Y3090D01*
X5325Y3040D02*
X5350Y3015D01*
X5400D01*
X5425Y3040D01*
Y3090D01*
X5325Y3440D02*
Y3490D01*
X5350Y3515D01*
X5400D02*
X5425Y3490D01*
X5350Y3515D02*
X5400D01*
X5325Y3390D02*
X5350Y3415D01*
X5325Y3340D02*
Y3390D01*
Y3340D02*
X5350Y3315D01*
X5400D01*
X5425Y3340D01*
Y3390D01*
X5400Y3415D02*
X5425Y3390D01*
X5325Y3440D02*
X5350Y3415D01*
X5400D01*
X5425Y3440D01*
Y3490D01*
X5325Y3140D02*
Y3190D01*
X5350Y3215D01*
X5400D02*
X5425Y3190D01*
X5325Y3290D02*
X5350Y3315D01*
X5325Y3240D02*
Y3290D01*
Y3240D02*
X5350Y3215D01*
X5400D01*
X5425Y3240D01*
Y3290D01*
X5400Y3315D02*
X5425Y3290D01*
X5325Y3140D02*
X5350Y3115D01*
X5400D01*
X5425Y3140D01*
Y3190D01*
X4225Y3550D02*
X4275D01*
X4200Y3575D02*
X4225Y3550D01*
X4200Y3625D02*
X4225Y3650D01*
X4200Y3575D02*
Y3625D01*
X4300Y3575D02*
X4325Y3550D01*
X4375D01*
X4400Y3575D01*
Y3625D01*
X4375Y3650D02*
X4400Y3625D01*
X4325Y3650D02*
X4375D01*
X4300Y3625D02*
X4325Y3650D01*
X4275Y3550D02*
X4300Y3575D01*
Y3625D01*
X4275Y3650D02*
X4300Y3625D01*
X4225Y3650D02*
X4275D01*
X4265Y2910D02*
X4315D01*
X4340Y2885D01*
X4315Y2810D02*
X4340Y2835D01*
X4240Y2885D02*
X4265Y2910D01*
X4240Y2835D02*
Y2885D01*
Y2835D02*
X4265Y2810D01*
X4315D01*
X4565Y2910D02*
X4615D01*
X4640Y2885D01*
X4615Y2810D02*
X4640Y2835D01*
Y2885D01*
X4515Y2910D02*
X4540Y2885D01*
X4465Y2910D02*
X4515D01*
X4440Y2885D02*
X4465Y2910D01*
X4440Y2835D02*
Y2885D01*
Y2835D02*
X4465Y2810D01*
X4515D01*
X4540Y2835D01*
Y2885D02*
X4565Y2910D01*
X4540Y2835D02*
Y2885D01*
Y2835D02*
X4565Y2810D01*
X4615D01*
X4415Y2910D02*
X4440Y2885D01*
X4365Y2910D02*
X4415D01*
X4340Y2885D02*
X4365Y2910D01*
X4340Y2835D02*
Y2885D01*
Y2835D02*
X4365Y2810D01*
X4415D01*
X4440Y2835D01*
X5405Y3569D02*
X5424D01*
X5405Y3649D02*
X5425D01*
Y3569D02*
Y3649D01*
X5263Y3569D02*
Y3649D01*
X5405Y3569D02*
Y3649D01*
X5263D02*
X5405D01*
X5263Y3569D02*
X5405D01*
D17*
X3713Y3488D02*
X3716Y3496D01*
Y3480D01*
X3713Y3488D01*
X3708Y3493D01*
X3700Y3496D01*
X3692D01*
X3684Y3493D01*
X3679Y3488D01*
Y3483D01*
X3682Y3478D01*
X3684Y3475D01*
X3690Y3472D01*
X3705Y3467D01*
X3711Y3465D01*
X3716Y3459D01*
X3679Y3483D02*
X3684Y3478D01*
X3690Y3475D01*
X3705Y3470D01*
X3711Y3467D01*
X3713Y3465D01*
X3716Y3459D01*
Y3449D01*
X3711Y3444D01*
X3703Y3441D01*
X3695D01*
X3687Y3444D01*
X3682Y3449D01*
X3679Y3457D01*
Y3441D01*
X3682Y3449D01*
X3742Y3496D02*
Y3441D01*
X3745Y3496D02*
Y3441D01*
X3727Y3496D02*
X3724Y3480D01*
Y3496D01*
X3763D01*
Y3480D01*
X3761Y3496D01*
X3734Y3441D02*
X3753D01*
X3771Y3465D02*
X3818D01*
X3833Y3496D02*
Y3441D01*
X3836Y3496D02*
Y3441D01*
X3825Y3496D02*
X3844D01*
X3825Y3441D02*
X3865D01*
Y3457D01*
X3862Y3441D01*
X3880Y3496D02*
Y3441D01*
X3883Y3496D02*
Y3441D01*
X3872Y3496D02*
X3891D01*
X3872Y3441D02*
X3891D01*
X3909Y3496D02*
Y3441D01*
X3911Y3496D02*
X3943Y3446D01*
X3911Y3491D02*
X3943Y3441D01*
Y3496D02*
Y3441D01*
X3901Y3496D02*
X3911D01*
X3935D02*
X3951D01*
X3901Y3441D02*
X3916D01*
X3965Y3496D02*
Y3441D01*
X3968Y3496D02*
Y3441D01*
X4002Y3496D02*
X3968Y3462D01*
X3981Y3472D02*
X4002Y3441D01*
X3978Y3472D02*
X3999Y3441D01*
X3957Y3496D02*
X3976D01*
X3991D02*
X4007D01*
X3957Y3441D02*
X3976D01*
X3991D02*
X4007D01*
X4019Y3496D02*
X4037Y3441D01*
X4022Y3496D02*
X4037Y3449D01*
X4056Y3496D02*
X4037Y3441D01*
X4014Y3496D02*
X4030D01*
X4045D02*
X4061D01*
X4071Y3486D02*
X4073Y3483D01*
X4071Y3480D01*
X4068Y3483D01*
Y3486D01*
X4071Y3491D01*
X4073Y3493D01*
X4081Y3496D01*
X4092D01*
X4100Y3493D01*
X4102Y3491D01*
X4105Y3486D01*
Y3480D01*
X4102Y3475D01*
X4094Y3470D01*
X4081Y3465D01*
X4076Y3462D01*
X4071Y3457D01*
X4068Y3449D01*
Y3441D01*
X4092Y3496D02*
X4097Y3493D01*
X4100Y3491D01*
X4102Y3486D01*
Y3480D01*
X4100Y3475D01*
X4092Y3470D01*
X4081Y3465D01*
X4068Y3446D02*
X4071Y3449D01*
X4076D01*
X4089Y3444D01*
X4097D01*
X4102Y3446D01*
X4105Y3449D01*
Y3454D01*
X4076Y3449D02*
X4089Y3441D01*
X4100D01*
X4102Y3444D01*
X4105Y3449D01*
D18*
X3353Y3673D02*
Y3633D01*
X3355Y3673D02*
Y3633D01*
X3347Y3673D02*
X3370D01*
X3376Y3671D01*
X3377Y3669D01*
X3379Y3665D01*
Y3660D01*
X3377Y3656D01*
X3376Y3654D01*
X3370Y3652D01*
X3355D01*
X3370Y3673D02*
X3374Y3671D01*
X3376Y3669D01*
X3377Y3665D01*
Y3660D01*
X3376Y3656D01*
X3374Y3654D01*
X3370Y3652D01*
X3347Y3633D02*
X3360D01*
X3398Y3673D02*
X3392Y3671D01*
X3389Y3667D01*
X3387Y3663D01*
X3385Y3656D01*
Y3650D01*
X3387Y3643D01*
X3389Y3639D01*
X3392Y3635D01*
X3398Y3633D01*
X3402D01*
X3408Y3635D01*
X3411Y3639D01*
X3413Y3643D01*
X3415Y3650D01*
Y3656D01*
X3413Y3663D01*
X3411Y3667D01*
X3408Y3671D01*
X3402Y3673D01*
X3398D01*
X3394Y3671D01*
X3390Y3667D01*
X3389Y3663D01*
X3387Y3656D01*
Y3650D01*
X3389Y3643D01*
X3390Y3639D01*
X3394Y3635D01*
X3398Y3633D01*
X3402D02*
X3406Y3635D01*
X3409Y3639D01*
X3411Y3643D01*
X3413Y3650D01*
Y3656D01*
X3411Y3663D01*
X3409Y3667D01*
X3406Y3671D01*
X3402Y3673D01*
X3426D02*
X3434Y3633D01*
X3428Y3673D02*
X3434Y3643D01*
X3442Y3673D02*
X3434Y3633D01*
X3442Y3673D02*
X3449Y3633D01*
X3444Y3673D02*
X3449Y3643D01*
X3457Y3673D02*
X3449Y3633D01*
X3421Y3673D02*
X3434D01*
X3451D02*
X3463D01*
X3473D02*
Y3633D01*
X3475Y3673D02*
Y3633D01*
X3486Y3662D02*
Y3646D01*
X3467Y3673D02*
X3497D01*
Y3662D01*
X3496Y3673D01*
X3475Y3654D02*
X3486D01*
X3467Y3633D02*
X3497D01*
Y3644D01*
X3496Y3633D01*
X3509Y3673D02*
Y3633D01*
X3511Y3673D02*
Y3633D01*
X3503Y3673D02*
X3526D01*
X3532Y3671D01*
X3533Y3669D01*
X3535Y3665D01*
Y3662D01*
X3533Y3658D01*
X3532Y3656D01*
X3526Y3654D01*
X3511D01*
X3526Y3673D02*
X3530Y3671D01*
X3532Y3669D01*
X3533Y3665D01*
Y3662D01*
X3532Y3658D01*
X3530Y3656D01*
X3526Y3654D01*
X3503Y3633D02*
X3516D01*
X3520Y3654D02*
X3524Y3652D01*
X3526Y3650D01*
X3532Y3637D01*
X3533Y3635D01*
X3535D01*
X3537Y3637D01*
X3524Y3652D02*
X3526Y3648D01*
X3530Y3635D01*
X3532Y3633D01*
X3535D01*
X3537Y3637D01*
Y3639D01*
X5444Y3633D02*
Y3593D01*
X5446Y3633D02*
Y3593D01*
X5438Y3633D02*
X5461D01*
X5467Y3631D01*
X5468Y3629D01*
X5470Y3625D01*
Y3622D01*
X5468Y3618D01*
X5467Y3616D01*
X5461Y3614D01*
X5446D01*
X5461Y3633D02*
X5465Y3631D01*
X5467Y3629D01*
X5468Y3625D01*
Y3622D01*
X5467Y3618D01*
X5465Y3616D01*
X5461Y3614D01*
X5438Y3593D02*
X5451D01*
X5455Y3614D02*
X5459Y3612D01*
X5461Y3610D01*
X5467Y3597D01*
X5468Y3595D01*
X5470D01*
X5472Y3597D01*
X5459Y3612D02*
X5461Y3608D01*
X5465Y3595D01*
X5467Y3593D01*
X5470D01*
X5472Y3597D01*
Y3599D01*
X5483Y3633D02*
Y3593D01*
X5485Y3633D02*
Y3593D01*
X5496Y3622D02*
Y3606D01*
X5477Y3633D02*
X5508D01*
Y3622D01*
X5506Y3633D01*
X5485Y3614D02*
X5496D01*
X5477Y3593D02*
X5508D01*
Y3604D01*
X5506Y3593D01*
X5519Y3633D02*
Y3593D01*
X5521Y3633D02*
Y3593D01*
X5513Y3633D02*
X5532D01*
X5538Y3631D01*
X5542Y3627D01*
X5544Y3623D01*
X5546Y3618D01*
Y3608D01*
X5544Y3603D01*
X5542Y3599D01*
X5538Y3595D01*
X5532Y3593D01*
X5513D01*
X5532Y3633D02*
X5536Y3631D01*
X5540Y3627D01*
X5542Y3623D01*
X5544Y3618D01*
Y3608D01*
X5542Y3603D01*
X5540Y3599D01*
X5536Y3595D01*
X5532Y3593D01*
X5442Y2929D02*
Y2889D01*
X5444Y2929D02*
Y2889D01*
X5436Y2929D02*
X5459D01*
X5465Y2927D01*
X5466Y2925D01*
X5468Y2921D01*
Y2918D01*
X5466Y2914D01*
X5465Y2912D01*
X5459Y2910D01*
Y2929D02*
X5463Y2927D01*
X5465Y2925D01*
X5466Y2921D01*
Y2918D01*
X5465Y2914D01*
X5463Y2912D01*
X5459Y2910D01*
X5444D02*
X5459D01*
X5465Y2908D01*
X5466Y2906D01*
X5468Y2902D01*
Y2897D01*
X5466Y2893D01*
X5465Y2891D01*
X5459Y2889D01*
X5436D01*
X5459Y2910D02*
X5463Y2908D01*
X5465Y2906D01*
X5466Y2902D01*
Y2897D01*
X5465Y2893D01*
X5463Y2891D01*
X5459Y2889D01*
X5479Y2929D02*
Y2889D01*
X5481Y2929D02*
Y2889D01*
X5474Y2929D02*
X5487D01*
X5474Y2889D02*
X5502D01*
Y2900D01*
X5500Y2889D01*
X5514Y2929D02*
Y2900D01*
X5516Y2895D01*
X5519Y2891D01*
X5525Y2889D01*
X5529D01*
X5535Y2891D01*
X5538Y2895D01*
X5540Y2900D01*
Y2929D01*
X5516D02*
Y2900D01*
X5518Y2895D01*
X5521Y2891D01*
X5525Y2889D01*
X5508Y2929D02*
X5521D01*
X5535D02*
X5546D01*
X5557D02*
Y2889D01*
X5558Y2929D02*
Y2889D01*
X5570Y2918D02*
Y2902D01*
X5551Y2929D02*
X5581D01*
Y2918D01*
X5579Y2929D01*
X5558Y2910D02*
X5570D01*
X5551Y2889D02*
X5581D01*
Y2900D01*
X5579Y2889D01*
X5444Y3084D02*
Y3044D01*
X5446Y3084D02*
Y3044D01*
X5438Y3084D02*
X5461D01*
X5467Y3082D01*
X5468Y3080D01*
X5470Y3076D01*
Y3073D01*
X5468Y3069D01*
X5467Y3067D01*
X5461Y3065D01*
X5446D01*
X5461Y3084D02*
X5465Y3082D01*
X5467Y3080D01*
X5468Y3076D01*
Y3073D01*
X5467Y3069D01*
X5465Y3067D01*
X5461Y3065D01*
X5438Y3044D02*
X5451D01*
X5455Y3065D02*
X5459Y3063D01*
X5461Y3061D01*
X5467Y3048D01*
X5468Y3046D01*
X5470D01*
X5472Y3048D01*
X5459Y3063D02*
X5461Y3059D01*
X5465Y3046D01*
X5467Y3044D01*
X5470D01*
X5472Y3048D01*
Y3050D01*
X5502Y3078D02*
X5504Y3084D01*
Y3073D01*
X5502Y3078D01*
X5498Y3082D01*
X5493Y3084D01*
X5487D01*
X5481Y3082D01*
X5477Y3078D01*
Y3074D01*
X5479Y3071D01*
X5481Y3069D01*
X5485Y3067D01*
X5496Y3063D01*
X5500Y3061D01*
X5504Y3057D01*
X5477Y3074D02*
X5481Y3071D01*
X5485Y3069D01*
X5496Y3065D01*
X5500Y3063D01*
X5502Y3061D01*
X5504Y3057D01*
Y3050D01*
X5500Y3046D01*
X5495Y3044D01*
X5489D01*
X5483Y3046D01*
X5479Y3050D01*
X5477Y3055D01*
Y3044D01*
X5479Y3050D01*
X5523Y3084D02*
Y3044D01*
X5525Y3084D02*
Y3044D01*
X5512Y3084D02*
X5510Y3073D01*
Y3084D01*
X5539D01*
Y3073D01*
X5537Y3084D01*
X5518Y3044D02*
X5531D01*
X5444Y3182D02*
Y3142D01*
X5446Y3182D02*
Y3142D01*
X5438Y3182D02*
X5457D01*
X5463Y3180D01*
X5467Y3176D01*
X5468Y3172D01*
X5470Y3167D01*
Y3157D01*
X5468Y3152D01*
X5467Y3148D01*
X5463Y3144D01*
X5457Y3142D01*
X5438D01*
X5457Y3182D02*
X5461Y3180D01*
X5465Y3176D01*
X5467Y3172D01*
X5468Y3167D01*
Y3157D01*
X5467Y3152D01*
X5465Y3148D01*
X5461Y3144D01*
X5457Y3142D01*
X5481Y3182D02*
Y3142D01*
X5483Y3182D02*
Y3142D01*
X5476Y3182D02*
X5489D01*
X5476Y3142D02*
X5489D01*
X5510Y3182D02*
X5504Y3180D01*
X5500Y3176D01*
X5498Y3172D01*
X5496Y3165D01*
Y3159D01*
X5498Y3152D01*
X5500Y3148D01*
X5504Y3144D01*
X5510Y3142D01*
X5513D01*
X5519Y3144D01*
X5523Y3148D01*
X5525Y3152D01*
X5527Y3159D01*
Y3165D01*
X5525Y3172D01*
X5523Y3176D01*
X5519Y3180D01*
X5513Y3182D01*
X5510D01*
X5506Y3180D01*
X5502Y3176D01*
X5500Y3172D01*
X5498Y3165D01*
Y3159D01*
X5500Y3152D01*
X5502Y3148D01*
X5506Y3144D01*
X5510Y3142D01*
X5513D02*
X5517Y3144D01*
X5521Y3148D01*
X5523Y3152D01*
X5525Y3159D01*
Y3165D01*
X5523Y3172D01*
X5521Y3176D01*
X5517Y3180D01*
X5513Y3182D01*
X5465Y3279D02*
X5467Y3274D01*
Y3285D01*
X5465Y3279D01*
X5461Y3283D01*
X5455Y3285D01*
X5451D01*
X5446Y3283D01*
X5442Y3279D01*
X5440Y3275D01*
X5438Y3270D01*
Y3260D01*
X5440Y3255D01*
X5442Y3251D01*
X5446Y3247D01*
X5451Y3245D01*
X5455D01*
X5461Y3247D01*
X5465Y3251D01*
X5451Y3285D02*
X5448Y3283D01*
X5444Y3279D01*
X5442Y3275D01*
X5440Y3270D01*
Y3260D01*
X5442Y3255D01*
X5444Y3251D01*
X5448Y3247D01*
X5451Y3245D01*
X5465Y3260D02*
Y3245D01*
X5467Y3260D02*
Y3245D01*
X5459Y3260D02*
X5472D01*
X5483Y3285D02*
Y3245D01*
X5485Y3285D02*
X5508Y3249D01*
X5485Y3281D02*
X5508Y3245D01*
Y3285D02*
Y3245D01*
X5477Y3285D02*
X5485D01*
X5502D02*
X5514D01*
X5477Y3245D02*
X5489D01*
X5524Y3285D02*
Y3245D01*
X5526Y3285D02*
Y3245D01*
X5519Y3285D02*
X5538D01*
X5543Y3283D01*
X5547Y3279D01*
X5549Y3275D01*
X5551Y3270D01*
Y3260D01*
X5549Y3255D01*
X5547Y3251D01*
X5543Y3247D01*
X5538Y3245D01*
X5519D01*
X5538Y3285D02*
X5541Y3283D01*
X5545Y3279D01*
X5547Y3275D01*
X5549Y3270D01*
Y3260D01*
X5547Y3255D01*
X5545Y3251D01*
X5541Y3247D01*
X5538Y3245D01*
X5465Y3375D02*
X5467Y3370D01*
Y3381D01*
X5465Y3375D01*
X5461Y3379D01*
X5455Y3381D01*
X5451D01*
X5446Y3379D01*
X5442Y3375D01*
X5440Y3371D01*
X5438Y3366D01*
Y3356D01*
X5440Y3351D01*
X5442Y3347D01*
X5446Y3343D01*
X5451Y3341D01*
X5455D01*
X5461Y3343D01*
X5465Y3347D01*
X5467Y3351D01*
X5451Y3381D02*
X5448Y3379D01*
X5444Y3375D01*
X5442Y3371D01*
X5440Y3366D01*
Y3356D01*
X5442Y3351D01*
X5444Y3347D01*
X5448Y3343D01*
X5451Y3341D01*
X5478Y3381D02*
Y3341D01*
X5480Y3381D02*
Y3341D01*
X5472Y3381D02*
X5486D01*
X5472Y3341D02*
X5501D01*
Y3352D01*
X5499Y3341D01*
X5512Y3381D02*
Y3341D01*
X5514Y3381D02*
Y3341D01*
X5539Y3381D02*
X5514Y3356D01*
X5524Y3364D02*
X5539Y3341D01*
X5522Y3364D02*
X5537Y3341D01*
X5507Y3381D02*
X5520D01*
X5531D02*
X5543D01*
X5507Y3341D02*
X5520D01*
X5531D02*
X5543D01*
X5440Y3476D02*
X5442Y3474D01*
X5440Y3473D01*
X5438Y3474D01*
Y3476D01*
X5440Y3480D01*
X5442Y3482D01*
X5448Y3484D01*
X5455D01*
X5461Y3482D01*
X5463Y3478D01*
Y3473D01*
X5461Y3469D01*
X5455Y3467D01*
X5449D01*
X5455Y3484D02*
X5459Y3482D01*
X5461Y3478D01*
Y3473D01*
X5459Y3469D01*
X5455Y3467D01*
X5459Y3465D01*
X5463Y3461D01*
X5465Y3457D01*
Y3452D01*
X5463Y3448D01*
X5461Y3446D01*
X5455Y3444D01*
X5448D01*
X5442Y3446D01*
X5440Y3448D01*
X5438Y3452D01*
Y3454D01*
X5440Y3455D01*
X5442Y3454D01*
X5440Y3452D01*
X5461Y3463D02*
X5463Y3457D01*
Y3452D01*
X5461Y3448D01*
X5459Y3446D01*
X5455Y3444D01*
X5474Y3484D02*
X5488Y3444D01*
X5476Y3484D02*
X5488Y3450D01*
X5501Y3484D02*
X5488Y3444D01*
X5471Y3484D02*
X5482D01*
X5493D02*
X5505D01*
X5512Y3476D02*
X5514Y3474D01*
X5512Y3473D01*
X5510Y3474D01*
Y3476D01*
X5512Y3480D01*
X5514Y3482D01*
X5520Y3484D01*
X5527D01*
X5533Y3482D01*
X5535Y3478D01*
Y3473D01*
X5533Y3469D01*
X5527Y3467D01*
X5521D01*
X5527Y3484D02*
X5531Y3482D01*
X5533Y3478D01*
Y3473D01*
X5531Y3469D01*
X5527Y3467D01*
X5531Y3465D01*
X5535Y3461D01*
X5537Y3457D01*
Y3452D01*
X5535Y3448D01*
X5533Y3446D01*
X5527Y3444D01*
X5520D01*
X5514Y3446D01*
X5512Y3448D01*
X5510Y3452D01*
Y3454D01*
X5512Y3455D01*
X5514Y3454D01*
X5512Y3452D01*
X5533Y3463D02*
X5535Y3457D01*
Y3452D01*
X5533Y3448D01*
X5531Y3446D01*
X5527Y3444D01*
X5136Y3695D02*
Y3655D01*
X5138Y3695D02*
Y3655D01*
X5130Y3695D02*
X5153D01*
X5159Y3693D01*
X5160Y3691D01*
X5162Y3687D01*
Y3684D01*
X5160Y3680D01*
X5159Y3678D01*
X5153Y3676D01*
X5138D01*
X5153Y3695D02*
X5157Y3693D01*
X5159Y3691D01*
X5160Y3687D01*
Y3684D01*
X5159Y3680D01*
X5157Y3678D01*
X5153Y3676D01*
X5130Y3655D02*
X5143D01*
X5147Y3676D02*
X5151Y3674D01*
X5153Y3672D01*
X5159Y3659D01*
X5160Y3657D01*
X5162D01*
X5164Y3659D01*
X5151Y3674D02*
X5153Y3670D01*
X5157Y3657D01*
X5159Y3655D01*
X5162D01*
X5164Y3659D01*
Y3661D01*
X5171Y3687D02*
X5173Y3685D01*
X5171Y3684D01*
X5169Y3685D01*
Y3687D01*
X5171Y3691D01*
X5173Y3693D01*
X5179Y3695D01*
X5187D01*
X5192Y3693D01*
X5194Y3691D01*
X5196Y3687D01*
Y3684D01*
X5194Y3680D01*
X5188Y3676D01*
X5179Y3672D01*
X5175Y3670D01*
X5171Y3666D01*
X5169Y3661D01*
Y3655D01*
X5187Y3695D02*
X5190Y3693D01*
X5192Y3691D01*
X5194Y3687D01*
Y3684D01*
X5192Y3680D01*
X5187Y3676D01*
X5179Y3672D01*
X5169Y3659D02*
X5171Y3661D01*
X5175D01*
X5185Y3657D01*
X5190D01*
X5194Y3659D01*
X5196Y3661D01*
Y3665D01*
X5175Y3661D02*
X5185Y3655D01*
X5192D01*
X5194Y3657D01*
X5196Y3661D01*
X5213Y3695D02*
X5208Y3693D01*
X5204Y3687D01*
X5202Y3678D01*
Y3672D01*
X5204Y3663D01*
X5208Y3657D01*
X5213Y3655D01*
X5217D01*
X5223Y3657D01*
X5227Y3663D01*
X5229Y3672D01*
Y3678D01*
X5227Y3687D01*
X5223Y3693D01*
X5217Y3695D01*
X5213D01*
X5210Y3693D01*
X5208Y3691D01*
X5206Y3687D01*
X5204Y3678D01*
Y3672D01*
X5206Y3663D01*
X5208Y3659D01*
X5210Y3657D01*
X5213Y3655D01*
X5217D02*
X5221Y3657D01*
X5223Y3659D01*
X5225Y3663D01*
X5227Y3672D01*
Y3678D01*
X5225Y3687D01*
X5223Y3691D01*
X5221Y3693D01*
X5217Y3695D01*
X4839Y3135D02*
X4852Y3114D01*
Y3095D01*
X4841Y3135D02*
X4854Y3114D01*
Y3095D01*
X4867Y3135D02*
X4854Y3114D01*
X4835Y3135D02*
X4846D01*
X4860D02*
X4871D01*
X4846Y3095D02*
X4860D01*
X4876Y3127D02*
X4880Y3129D01*
X4886Y3135D01*
Y3095D01*
X4884Y3133D02*
Y3095D01*
X4876D02*
X4893D01*
X4942Y3614D02*
X4944Y3609D01*
Y3620D01*
X4942Y3614D01*
X4938Y3618D01*
X4932Y3620D01*
X4928D01*
X4923Y3618D01*
X4919Y3614D01*
X4917Y3610D01*
X4915Y3605D01*
Y3595D01*
X4917Y3590D01*
X4919Y3586D01*
X4923Y3582D01*
X4928Y3580D01*
X4932D01*
X4938Y3582D01*
X4942Y3586D01*
X4944Y3590D01*
X4928Y3620D02*
X4925Y3618D01*
X4921Y3614D01*
X4919Y3610D01*
X4917Y3605D01*
Y3595D01*
X4919Y3590D01*
X4921Y3586D01*
X4925Y3582D01*
X4928Y3580D01*
X4951Y3612D02*
X4953Y3610D01*
X4951Y3609D01*
X4949Y3610D01*
Y3612D01*
X4951Y3616D01*
X4953Y3618D01*
X4959Y3620D01*
X4966D01*
X4972Y3618D01*
X4974Y3616D01*
X4976Y3612D01*
Y3609D01*
X4974Y3605D01*
X4968Y3601D01*
X4959Y3597D01*
X4955Y3595D01*
X4951Y3591D01*
X4949Y3586D01*
Y3580D01*
X4966Y3620D02*
X4970Y3618D01*
X4972Y3616D01*
X4974Y3612D01*
Y3609D01*
X4972Y3605D01*
X4966Y3601D01*
X4959Y3597D01*
X4949Y3584D02*
X4951Y3586D01*
X4955D01*
X4965Y3582D01*
X4970D01*
X4974Y3584D01*
X4976Y3586D01*
Y3590D01*
X4955Y3586D02*
X4965Y3580D01*
X4972D01*
X4974Y3582D01*
X4976Y3586D01*
X5211Y3020D02*
Y2980D01*
X5213Y3020D02*
Y2980D01*
X5205Y3020D02*
X5228D01*
X5234Y3018D01*
X5235Y3016D01*
X5237Y3012D01*
Y3009D01*
X5235Y3005D01*
X5234Y3003D01*
X5228Y3001D01*
X5213D01*
X5228Y3020D02*
X5232Y3018D01*
X5234Y3016D01*
X5235Y3012D01*
Y3009D01*
X5234Y3005D01*
X5232Y3003D01*
X5228Y3001D01*
X5205Y2980D02*
X5218D01*
X5222Y3001D02*
X5226Y2999D01*
X5228Y2997D01*
X5234Y2984D01*
X5235Y2982D01*
X5237D01*
X5239Y2984D01*
X5226Y2999D02*
X5228Y2995D01*
X5232Y2982D01*
X5234Y2980D01*
X5237D01*
X5239Y2984D01*
Y2986D01*
X5244Y3012D02*
X5248Y3014D01*
X5254Y3020D01*
Y2980D01*
X5252Y3018D02*
Y2980D01*
X5244D02*
X5262D01*
X5270Y3012D02*
X5272Y3010D01*
X5270Y3009D01*
X5268Y3010D01*
Y3012D01*
X5270Y3016D01*
X5272Y3018D01*
X5278Y3020D01*
X5286D01*
X5291Y3018D01*
X5293Y3014D01*
Y3009D01*
X5291Y3005D01*
X5286Y3003D01*
X5280D01*
X5286Y3020D02*
X5289Y3018D01*
X5291Y3014D01*
Y3009D01*
X5289Y3005D01*
X5286Y3003D01*
X5289Y3001D01*
X5293Y2997D01*
X5295Y2993D01*
Y2988D01*
X5293Y2984D01*
X5291Y2982D01*
X5286Y2980D01*
X5278D01*
X5272Y2982D01*
X5270Y2984D01*
X5268Y2988D01*
Y2990D01*
X5270Y2991D01*
X5272Y2990D01*
X5270Y2988D01*
X5291Y2999D02*
X5293Y2993D01*
Y2988D01*
X5291Y2984D01*
X5289Y2982D01*
X5286Y2980D01*
X5211Y3250D02*
Y3210D01*
X5213Y3250D02*
Y3210D01*
X5205Y3250D02*
X5228D01*
X5234Y3248D01*
X5235Y3246D01*
X5237Y3242D01*
Y3239D01*
X5235Y3235D01*
X5234Y3233D01*
X5228Y3231D01*
X5213D01*
X5228Y3250D02*
X5232Y3248D01*
X5234Y3246D01*
X5235Y3242D01*
Y3239D01*
X5234Y3235D01*
X5232Y3233D01*
X5228Y3231D01*
X5205Y3210D02*
X5218D01*
X5222Y3231D02*
X5226Y3229D01*
X5228Y3227D01*
X5234Y3214D01*
X5235Y3212D01*
X5237D01*
X5239Y3214D01*
X5226Y3229D02*
X5228Y3225D01*
X5232Y3212D01*
X5234Y3210D01*
X5237D01*
X5239Y3214D01*
Y3216D01*
X5244Y3242D02*
X5248Y3244D01*
X5254Y3250D01*
Y3210D01*
X5252Y3248D02*
Y3210D01*
X5244D02*
X5262D01*
X5270Y3242D02*
X5272Y3240D01*
X5270Y3239D01*
X5268Y3240D01*
Y3242D01*
X5270Y3246D01*
X5272Y3248D01*
X5278Y3250D01*
X5286D01*
X5291Y3248D01*
X5293Y3246D01*
X5295Y3242D01*
Y3239D01*
X5293Y3235D01*
X5287Y3231D01*
X5278Y3227D01*
X5274Y3225D01*
X5270Y3221D01*
X5268Y3216D01*
Y3210D01*
X5286Y3250D02*
X5289Y3248D01*
X5291Y3246D01*
X5293Y3242D01*
Y3239D01*
X5291Y3235D01*
X5286Y3231D01*
X5278Y3227D01*
X5268Y3214D02*
X5270Y3216D01*
X5274D01*
X5284Y3212D01*
X5289D01*
X5293Y3214D01*
X5295Y3216D01*
Y3220D01*
X5274Y3216D02*
X5284Y3210D01*
X5291D01*
X5293Y3212D01*
X5295Y3216D01*
X5217Y3450D02*
Y3410D01*
X5219Y3450D02*
Y3410D01*
X5211Y3450D02*
X5234D01*
X5240Y3448D01*
X5242Y3446D01*
X5243Y3442D01*
Y3439D01*
X5242Y3435D01*
X5240Y3433D01*
X5234Y3431D01*
X5219D01*
X5234Y3450D02*
X5238Y3448D01*
X5240Y3446D01*
X5242Y3442D01*
Y3439D01*
X5240Y3435D01*
X5238Y3433D01*
X5234Y3431D01*
X5211Y3410D02*
X5224D01*
X5228Y3431D02*
X5232Y3429D01*
X5234Y3427D01*
X5240Y3414D01*
X5242Y3412D01*
X5243D01*
X5245Y3414D01*
X5232Y3429D02*
X5234Y3425D01*
X5238Y3412D01*
X5240Y3410D01*
X5243D01*
X5245Y3414D01*
Y3416D01*
X5250Y3442D02*
X5254Y3444D01*
X5260Y3450D01*
Y3410D01*
X5258Y3448D02*
Y3410D01*
X5250D02*
X5268D01*
X5274Y3442D02*
X5278Y3444D01*
X5284Y3450D01*
Y3410D01*
X5282Y3448D02*
Y3410D01*
X5274D02*
X5292D01*
X5151Y2863D02*
Y2823D01*
X5153Y2863D02*
Y2823D01*
X5146Y2863D02*
X5168D01*
X5174Y2861D01*
X5176Y2859D01*
X5178Y2856D01*
Y2852D01*
X5176Y2848D01*
X5174Y2846D01*
X5168Y2844D01*
X5153D01*
X5168Y2863D02*
X5172Y2861D01*
X5174Y2859D01*
X5176Y2856D01*
Y2852D01*
X5174Y2848D01*
X5172Y2846D01*
X5168Y2844D01*
X5146Y2823D02*
X5159D01*
X5163Y2844D02*
X5167Y2842D01*
X5168Y2840D01*
X5174Y2827D01*
X5176Y2825D01*
X5178D01*
X5180Y2827D01*
X5167Y2842D02*
X5168Y2838D01*
X5172Y2825D01*
X5174Y2823D01*
X5178D01*
X5180Y2827D01*
Y2829D01*
X5187Y2856D02*
X5189Y2854D01*
X5187Y2852D01*
X5185Y2854D01*
Y2856D01*
X5187Y2859D01*
X5189Y2861D01*
X5195Y2863D01*
X5202D01*
X5208Y2861D01*
X5210Y2859D01*
X5212Y2856D01*
Y2852D01*
X5210Y2848D01*
X5204Y2844D01*
X5195Y2840D01*
X5191Y2838D01*
X5187Y2835D01*
X5185Y2829D01*
Y2823D01*
X5202Y2863D02*
X5206Y2861D01*
X5208Y2859D01*
X5210Y2856D01*
Y2852D01*
X5208Y2848D01*
X5202Y2844D01*
X5195Y2840D01*
X5185Y2827D02*
X5187Y2829D01*
X5191D01*
X5200Y2825D01*
X5206D01*
X5210Y2827D01*
X5212Y2829D01*
Y2833D01*
X5191Y2829D02*
X5200Y2823D01*
X5208D01*
X5210Y2825D01*
X5212Y2829D01*
X5218Y2856D02*
X5221Y2857D01*
X5227Y2863D01*
Y2823D01*
X5225Y2861D02*
Y2823D01*
X5218D02*
X5235D01*
X4952Y2994D02*
X4954Y2989D01*
Y3000D01*
X4952Y2994D01*
X4948Y2998D01*
X4942Y3000D01*
X4938D01*
X4933Y2998D01*
X4929Y2994D01*
X4927Y2990D01*
X4925Y2985D01*
Y2975D01*
X4927Y2970D01*
X4929Y2966D01*
X4933Y2962D01*
X4938Y2960D01*
X4942D01*
X4948Y2962D01*
X4952Y2966D01*
X4954Y2970D01*
X4938Y3000D02*
X4935Y2998D01*
X4931Y2994D01*
X4929Y2990D01*
X4927Y2985D01*
Y2975D01*
X4929Y2970D01*
X4931Y2966D01*
X4935Y2962D01*
X4938Y2960D01*
X4959Y2992D02*
X4963Y2994D01*
X4969Y3000D01*
Y2960D01*
X4967Y2998D02*
Y2960D01*
X4959D02*
X4976D01*
X4026Y3391D02*
Y3351D01*
X4028Y3391D02*
Y3351D01*
X4020Y3391D02*
X4043D01*
X4049Y3389D01*
X4050Y3387D01*
X4052Y3383D01*
Y3379D01*
X4050Y3375D01*
X4049Y3374D01*
X4043Y3372D01*
X4028D01*
X4043Y3391D02*
X4047Y3389D01*
X4049Y3387D01*
X4050Y3383D01*
Y3379D01*
X4049Y3375D01*
X4047Y3374D01*
X4043Y3372D01*
X4020Y3351D02*
X4033D01*
X4037Y3372D02*
X4041Y3370D01*
X4043Y3368D01*
X4049Y3355D01*
X4050Y3353D01*
X4052D01*
X4054Y3355D01*
X4041Y3370D02*
X4043Y3366D01*
X4047Y3353D01*
X4049Y3351D01*
X4052D01*
X4054Y3355D01*
Y3356D01*
X4059Y3383D02*
X4063Y3385D01*
X4069Y3391D01*
Y3351D01*
X4067Y3389D02*
Y3351D01*
X4059D02*
X4077D01*
X4106Y3385D02*
X4104Y3383D01*
X4106Y3381D01*
X4108Y3383D01*
Y3385D01*
X4106Y3389D01*
X4102Y3391D01*
X4097D01*
X4091Y3389D01*
X4087Y3385D01*
X4085Y3381D01*
X4083Y3374D01*
Y3362D01*
X4085Y3356D01*
X4089Y3353D01*
X4095Y3351D01*
X4099D01*
X4104Y3353D01*
X4108Y3356D01*
X4110Y3362D01*
Y3364D01*
X4108Y3370D01*
X4104Y3374D01*
X4099Y3375D01*
X4097D01*
X4091Y3374D01*
X4087Y3370D01*
X4085Y3364D01*
X4097Y3391D02*
X4093Y3389D01*
X4089Y3385D01*
X4087Y3381D01*
X4085Y3374D01*
Y3362D01*
X4087Y3356D01*
X4091Y3353D01*
X4095Y3351D01*
X4099D02*
X4102Y3353D01*
X4106Y3356D01*
X4108Y3362D01*
Y3364D01*
X4106Y3370D01*
X4102Y3374D01*
X4099Y3375D01*
X4357Y3519D02*
X4359Y3514D01*
Y3525D01*
X4357Y3519D01*
X4353Y3523D01*
X4347Y3525D01*
X4343D01*
X4338Y3523D01*
X4334Y3519D01*
X4332Y3515D01*
X4330Y3510D01*
Y3500D01*
X4332Y3495D01*
X4334Y3491D01*
X4338Y3487D01*
X4343Y3485D01*
X4347D01*
X4353Y3487D01*
X4357Y3491D01*
X4359Y3495D01*
X4343Y3525D02*
X4340Y3523D01*
X4336Y3519D01*
X4334Y3515D01*
X4332Y3510D01*
Y3500D01*
X4334Y3495D01*
X4336Y3491D01*
X4340Y3487D01*
X4343Y3485D01*
X4364Y3525D02*
Y3514D01*
Y3517D02*
X4366Y3521D01*
X4370Y3525D01*
X4374D01*
X4383Y3519D01*
X4387D01*
X4389Y3521D01*
X4391Y3525D01*
X4366Y3521D02*
X4370Y3523D01*
X4374D01*
X4383Y3519D01*
X4391Y3525D02*
Y3519D01*
X4389Y3514D01*
X4381Y3504D01*
X4380Y3500D01*
X4378Y3495D01*
Y3485D01*
X4389Y3514D02*
X4380Y3504D01*
X4378Y3500D01*
X4376Y3495D01*
Y3485D01*
X4227Y3384D02*
X4229Y3379D01*
Y3390D01*
X4227Y3384D01*
X4223Y3388D01*
X4217Y3390D01*
X4213D01*
X4208Y3388D01*
X4204Y3384D01*
X4202Y3380D01*
X4200Y3375D01*
Y3365D01*
X4202Y3360D01*
X4204Y3356D01*
X4208Y3352D01*
X4213Y3350D01*
X4217D01*
X4223Y3352D01*
X4227Y3356D01*
X4229Y3360D01*
X4213Y3390D02*
X4210Y3388D01*
X4206Y3384D01*
X4204Y3380D01*
X4202Y3375D01*
Y3365D01*
X4204Y3360D01*
X4206Y3356D01*
X4210Y3352D01*
X4213Y3350D01*
X4244Y3390D02*
X4238Y3388D01*
X4236Y3384D01*
Y3379D01*
X4238Y3375D01*
X4244Y3373D01*
X4251D01*
X4257Y3375D01*
X4259Y3379D01*
Y3384D01*
X4257Y3388D01*
X4251Y3390D01*
X4244D01*
X4240Y3388D01*
X4238Y3384D01*
Y3379D01*
X4240Y3375D01*
X4244Y3373D01*
X4251D02*
X4255Y3375D01*
X4257Y3379D01*
Y3384D01*
X4255Y3388D01*
X4251Y3390D01*
X4244Y3373D02*
X4238Y3371D01*
X4236Y3369D01*
X4234Y3365D01*
Y3358D01*
X4236Y3354D01*
X4238Y3352D01*
X4244Y3350D01*
X4251D01*
X4257Y3352D01*
X4259Y3354D01*
X4261Y3358D01*
Y3365D01*
X4259Y3369D01*
X4257Y3371D01*
X4251Y3373D01*
X4244D02*
X4240Y3371D01*
X4238Y3369D01*
X4236Y3365D01*
Y3358D01*
X4238Y3354D01*
X4240Y3352D01*
X4244Y3350D01*
X4251D02*
X4255Y3352D01*
X4257Y3354D01*
X4259Y3358D01*
Y3365D01*
X4257Y3369D01*
X4255Y3371D01*
X4251Y3373D01*
X3981Y3635D02*
Y3595D01*
X3983Y3635D02*
Y3595D01*
X3975Y3635D02*
X3998D01*
X4004Y3633D01*
X4005Y3631D01*
X4007Y3627D01*
Y3624D01*
X4005Y3620D01*
X4004Y3618D01*
X3998Y3616D01*
X3983D01*
X3998Y3635D02*
X4002Y3633D01*
X4004Y3631D01*
X4005Y3627D01*
Y3624D01*
X4004Y3620D01*
X4002Y3618D01*
X3998Y3616D01*
X3975Y3595D02*
X3988D01*
X3992Y3616D02*
X3996Y3614D01*
X3998Y3612D01*
X4004Y3599D01*
X4005Y3597D01*
X4007D01*
X4009Y3599D01*
X3996Y3614D02*
X3998Y3610D01*
X4002Y3597D01*
X4004Y3595D01*
X4007D01*
X4009Y3599D01*
Y3601D01*
X4039Y3622D02*
X4037Y3616D01*
X4033Y3612D01*
X4028Y3610D01*
X4026D01*
X4020Y3612D01*
X4016Y3616D01*
X4014Y3622D01*
Y3624D01*
X4016Y3629D01*
X4020Y3633D01*
X4026Y3635D01*
X4030D01*
X4035Y3633D01*
X4039Y3629D01*
X4041Y3624D01*
Y3612D01*
X4039Y3605D01*
X4037Y3601D01*
X4033Y3597D01*
X4028Y3595D01*
X4022D01*
X4018Y3597D01*
X4016Y3601D01*
Y3603D01*
X4018Y3605D01*
X4020Y3603D01*
X4018Y3601D01*
X4026Y3610D02*
X4022Y3612D01*
X4018Y3616D01*
X4016Y3622D01*
Y3624D01*
X4018Y3629D01*
X4022Y3633D01*
X4026Y3635D01*
X4030D02*
X4033Y3633D01*
X4037Y3629D01*
X4039Y3624D01*
Y3612D01*
X4037Y3605D01*
X4035Y3601D01*
X4032Y3597D01*
X4028Y3595D01*
X4007Y3559D02*
X4009Y3554D01*
Y3565D01*
X4007Y3559D01*
X4003Y3563D01*
X3997Y3565D01*
X3993D01*
X3988Y3563D01*
X3984Y3559D01*
X3982Y3555D01*
X3980Y3550D01*
Y3540D01*
X3982Y3535D01*
X3984Y3531D01*
X3988Y3527D01*
X3993Y3525D01*
X3997D01*
X4003Y3527D01*
X4007Y3531D01*
X4009Y3535D01*
X3993Y3565D02*
X3990Y3563D01*
X3986Y3559D01*
X3984Y3555D01*
X3982Y3550D01*
Y3540D01*
X3984Y3535D01*
X3986Y3531D01*
X3990Y3527D01*
X3993Y3525D01*
X4039Y3552D02*
X4037Y3546D01*
X4033Y3542D01*
X4028Y3540D01*
X4026D01*
X4020Y3542D01*
X4016Y3546D01*
X4014Y3552D01*
Y3554D01*
X4016Y3559D01*
X4020Y3563D01*
X4026Y3565D01*
X4030D01*
X4035Y3563D01*
X4039Y3559D01*
X4041Y3554D01*
Y3542D01*
X4039Y3535D01*
X4037Y3531D01*
X4033Y3527D01*
X4028Y3525D01*
X4022D01*
X4018Y3527D01*
X4016Y3531D01*
Y3533D01*
X4018Y3535D01*
X4020Y3533D01*
X4018Y3531D01*
X4026Y3540D02*
X4022Y3542D01*
X4018Y3546D01*
X4016Y3552D01*
Y3554D01*
X4018Y3559D01*
X4022Y3563D01*
X4026Y3565D01*
X4030D02*
X4033Y3563D01*
X4037Y3559D01*
X4039Y3554D01*
Y3542D01*
X4037Y3535D01*
X4035Y3531D01*
X4031Y3527D01*
X4028Y3525D01*
X4565Y3525D02*
Y3485D01*
X4567Y3525D02*
Y3485D01*
X4559Y3525D02*
X4582D01*
X4588Y3523D01*
X4590Y3521D01*
X4592Y3517D01*
Y3514D01*
X4590Y3510D01*
X4588Y3508D01*
X4582Y3506D01*
X4567D01*
X4582Y3525D02*
X4586Y3523D01*
X4588Y3521D01*
X4590Y3517D01*
Y3514D01*
X4588Y3510D01*
X4586Y3508D01*
X4582Y3506D01*
X4559Y3485D02*
X4573D01*
X4577Y3506D02*
X4580Y3504D01*
X4582Y3502D01*
X4588Y3489D01*
X4590Y3487D01*
X4592D01*
X4594Y3489D01*
X4580Y3504D02*
X4582Y3500D01*
X4586Y3487D01*
X4588Y3485D01*
X4592D01*
X4594Y3489D01*
Y3491D01*
X4599Y3517D02*
X4603Y3519D01*
X4608Y3525D01*
Y3485D01*
X4606Y3523D02*
Y3485D01*
X4599D02*
X4616D01*
X4642Y3521D02*
Y3485D01*
X4653Y3496D02*
X4623D01*
X4644Y3525D01*
Y3485D01*
X4636D02*
X4649D01*
X4567Y3680D02*
Y3640D01*
X4569Y3680D02*
Y3640D01*
X4561Y3680D02*
X4584D01*
X4590Y3678D01*
X4592Y3676D01*
X4594Y3672D01*
Y3669D01*
X4592Y3665D01*
X4590Y3663D01*
X4584Y3661D01*
X4569D01*
X4584Y3680D02*
X4588Y3678D01*
X4590Y3676D01*
X4592Y3672D01*
Y3669D01*
X4590Y3665D01*
X4588Y3663D01*
X4584Y3661D01*
X4561Y3640D02*
X4575D01*
X4578Y3661D02*
X4582Y3659D01*
X4584Y3657D01*
X4590Y3644D01*
X4592Y3642D01*
X4594D01*
X4596Y3644D01*
X4582Y3659D02*
X4584Y3655D01*
X4588Y3642D01*
X4590Y3640D01*
X4594D01*
X4596Y3644D01*
Y3646D01*
X4601Y3672D02*
X4604Y3674D01*
X4610Y3680D01*
Y3640D01*
X4608Y3678D02*
Y3640D01*
X4601D02*
X4618D01*
X4649Y3667D02*
X4648Y3661D01*
X4644Y3657D01*
X4638Y3655D01*
X4636D01*
X4630Y3657D01*
X4627Y3661D01*
X4625Y3667D01*
Y3669D01*
X4627Y3674D01*
X4630Y3678D01*
X4636Y3680D01*
X4640D01*
X4646Y3678D01*
X4649Y3674D01*
X4651Y3669D01*
Y3657D01*
X4649Y3650D01*
X4648Y3646D01*
X4644Y3642D01*
X4638Y3640D01*
X4632D01*
X4628Y3642D01*
X4627Y3646D01*
Y3648D01*
X4628Y3650D01*
X4630Y3648D01*
X4628Y3646D01*
X4636Y3655D02*
X4632Y3657D01*
X4628Y3661D01*
X4627Y3667D01*
Y3669D01*
X4628Y3674D01*
X4632Y3678D01*
X4636Y3680D01*
X4640D02*
X4644Y3678D01*
X4648Y3674D01*
X4649Y3669D01*
Y3657D01*
X4648Y3650D01*
X4646Y3646D01*
X4642Y3642D01*
X4638Y3640D01*
X4696Y3680D02*
Y3640D01*
X4698Y3680D02*
Y3640D01*
X4691Y3680D02*
X4713D01*
X4719Y3678D01*
X4721Y3676D01*
X4723Y3672D01*
Y3669D01*
X4721Y3665D01*
X4719Y3663D01*
X4713Y3661D01*
X4698D01*
X4713Y3680D02*
X4717Y3678D01*
X4719Y3676D01*
X4721Y3672D01*
Y3669D01*
X4719Y3665D01*
X4717Y3663D01*
X4713Y3661D01*
X4691Y3640D02*
X4704D01*
X4708Y3661D02*
X4712Y3659D01*
X4713Y3657D01*
X4719Y3644D01*
X4721Y3642D01*
X4723D01*
X4725Y3644D01*
X4712Y3659D02*
X4713Y3655D01*
X4717Y3642D01*
X4719Y3640D01*
X4723D01*
X4725Y3644D01*
Y3646D01*
X4730Y3672D02*
X4734Y3674D01*
X4740Y3680D01*
Y3640D01*
X4738Y3678D02*
Y3640D01*
X4730D02*
X4747D01*
X4758Y3680D02*
X4754Y3661D01*
X4758Y3665D01*
X4764Y3667D01*
X4769D01*
X4775Y3665D01*
X4779Y3661D01*
X4781Y3655D01*
Y3651D01*
X4779Y3646D01*
X4775Y3642D01*
X4769Y3640D01*
X4764D01*
X4758Y3642D01*
X4756Y3644D01*
X4754Y3648D01*
Y3650D01*
X4756Y3651D01*
X4758Y3650D01*
X4756Y3648D01*
X4769Y3667D02*
X4773Y3665D01*
X4777Y3661D01*
X4779Y3655D01*
Y3651D01*
X4777Y3646D01*
X4773Y3642D01*
X4769Y3640D01*
X4758Y3680D02*
X4777D01*
X4758Y3678D02*
X4767D01*
X4777Y3680D01*
X4832Y3519D02*
X4834Y3514D01*
Y3525D01*
X4832Y3519D01*
X4828Y3523D01*
X4822Y3525D01*
X4818D01*
X4813Y3523D01*
X4809Y3519D01*
X4807Y3515D01*
X4805Y3510D01*
Y3500D01*
X4807Y3495D01*
X4809Y3491D01*
X4813Y3487D01*
X4818Y3485D01*
X4822D01*
X4828Y3487D01*
X4832Y3491D01*
X4834Y3495D01*
X4818Y3525D02*
X4815Y3523D01*
X4811Y3519D01*
X4809Y3515D01*
X4807Y3510D01*
Y3500D01*
X4809Y3495D01*
X4811Y3491D01*
X4815Y3487D01*
X4818Y3485D01*
X4839Y3517D02*
X4843Y3519D01*
X4849Y3525D01*
Y3485D01*
X4847Y3523D02*
Y3485D01*
X4839D02*
X4856D01*
X4863Y3517D02*
X4867Y3519D01*
X4873Y3525D01*
Y3485D01*
X4871Y3523D02*
Y3485D01*
X4863D02*
X4880D01*
X4832Y3454D02*
X4834Y3449D01*
Y3460D01*
X4832Y3454D01*
X4828Y3458D01*
X4822Y3460D01*
X4818D01*
X4813Y3458D01*
X4809Y3454D01*
X4807Y3450D01*
X4805Y3445D01*
Y3435D01*
X4807Y3430D01*
X4809Y3426D01*
X4813Y3422D01*
X4818Y3420D01*
X4822D01*
X4828Y3422D01*
X4832Y3426D01*
X4834Y3430D01*
X4818Y3460D02*
X4815Y3458D01*
X4811Y3454D01*
X4809Y3450D01*
X4807Y3445D01*
Y3435D01*
X4809Y3430D01*
X4811Y3426D01*
X4815Y3422D01*
X4818Y3420D01*
X4839Y3452D02*
X4843Y3454D01*
X4849Y3460D01*
Y3420D01*
X4847Y3458D02*
Y3420D01*
X4839D02*
X4856D01*
X4875Y3460D02*
X4869Y3458D01*
X4865Y3452D01*
X4863Y3443D01*
Y3437D01*
X4865Y3428D01*
X4869Y3422D01*
X4875Y3420D01*
X4879D01*
X4884Y3422D01*
X4888Y3428D01*
X4890Y3437D01*
Y3443D01*
X4888Y3452D01*
X4884Y3458D01*
X4879Y3460D01*
X4875D01*
X4871Y3458D01*
X4869Y3456D01*
X4867Y3452D01*
X4865Y3443D01*
Y3437D01*
X4867Y3428D01*
X4869Y3424D01*
X4871Y3422D01*
X4875Y3420D01*
X4879D02*
X4882Y3422D01*
X4884Y3424D01*
X4886Y3428D01*
X4888Y3437D01*
Y3443D01*
X4886Y3452D01*
X4884Y3456D01*
X4882Y3458D01*
X4879Y3460D01*
X4810Y3296D02*
Y3256D01*
X4812Y3296D02*
Y3256D01*
X4804Y3296D02*
X4827D01*
X4833Y3294D01*
X4834Y3292D01*
X4836Y3288D01*
Y3285D01*
X4834Y3281D01*
X4833Y3279D01*
X4827Y3277D01*
X4812D01*
X4827Y3296D02*
X4831Y3294D01*
X4833Y3292D01*
X4834Y3288D01*
Y3285D01*
X4833Y3281D01*
X4831Y3279D01*
X4827Y3277D01*
X4804Y3256D02*
X4817D01*
X4821Y3277D02*
X4825Y3275D01*
X4827Y3273D01*
X4833Y3260D01*
X4834Y3258D01*
X4836D01*
X4838Y3260D01*
X4825Y3275D02*
X4827Y3271D01*
X4831Y3258D01*
X4833Y3256D01*
X4836D01*
X4838Y3260D01*
Y3262D01*
X4843Y3288D02*
X4847Y3290D01*
X4853Y3296D01*
Y3256D01*
X4851Y3294D02*
Y3256D01*
X4843D02*
X4861D01*
X4877Y3296D02*
X4871Y3294D01*
X4869Y3290D01*
Y3285D01*
X4871Y3281D01*
X4877Y3279D01*
X4885D01*
X4890Y3281D01*
X4892Y3285D01*
Y3290D01*
X4890Y3294D01*
X4885Y3296D01*
X4877D01*
X4873Y3294D01*
X4871Y3290D01*
Y3285D01*
X4873Y3281D01*
X4877Y3279D01*
X4885D02*
X4888Y3281D01*
X4890Y3285D01*
Y3290D01*
X4888Y3294D01*
X4885Y3296D01*
X4877Y3279D02*
X4871Y3277D01*
X4869Y3275D01*
X4867Y3271D01*
Y3264D01*
X4869Y3260D01*
X4871Y3258D01*
X4877Y3256D01*
X4885D01*
X4890Y3258D01*
X4892Y3260D01*
X4894Y3264D01*
Y3271D01*
X4892Y3275D01*
X4890Y3277D01*
X4885Y3279D01*
X4877D02*
X4873Y3277D01*
X4871Y3275D01*
X4869Y3271D01*
Y3264D01*
X4871Y3260D01*
X4873Y3258D01*
X4877Y3256D01*
X4885D02*
X4888Y3258D01*
X4890Y3260D01*
X4892Y3264D01*
Y3271D01*
X4890Y3275D01*
X4888Y3277D01*
X4885Y3279D01*
X4723Y3039D02*
Y2999D01*
X4725Y3039D02*
Y2999D01*
X4717Y3039D02*
X4740D01*
X4746Y3037D01*
X4747Y3035D01*
X4749Y3031D01*
Y3028D01*
X4747Y3024D01*
X4746Y3022D01*
X4740Y3020D01*
X4725D01*
X4740Y3039D02*
X4744Y3037D01*
X4746Y3035D01*
X4747Y3031D01*
Y3028D01*
X4746Y3024D01*
X4744Y3022D01*
X4740Y3020D01*
X4717Y2999D02*
X4730D01*
X4734Y3020D02*
X4738Y3018D01*
X4740Y3016D01*
X4746Y3003D01*
X4747Y3001D01*
X4749D01*
X4751Y3003D01*
X4738Y3018D02*
X4740Y3014D01*
X4744Y3001D01*
X4746Y2999D01*
X4749D01*
X4751Y3003D01*
Y3005D01*
X4756Y3031D02*
X4760Y3033D01*
X4766Y3039D01*
Y2999D01*
X4764Y3037D02*
Y2999D01*
X4756D02*
X4774D01*
X4780Y3039D02*
Y3028D01*
Y3031D02*
X4782Y3035D01*
X4786Y3039D01*
X4790D01*
X4799Y3033D01*
X4803D01*
X4805Y3035D01*
X4807Y3039D01*
X4782Y3035D02*
X4786Y3037D01*
X4790D01*
X4799Y3033D01*
X4807Y3039D02*
Y3033D01*
X4805Y3028D01*
X4798Y3018D01*
X4796Y3014D01*
X4794Y3009D01*
Y2999D01*
X4805Y3028D02*
X4796Y3018D01*
X4794Y3014D01*
X4792Y3009D01*
Y2999D01*
X4636Y3095D02*
Y3066D01*
X4638Y3061D01*
X4641Y3057D01*
X4647Y3055D01*
X4651D01*
X4657Y3057D01*
X4660Y3061D01*
X4662Y3066D01*
Y3095D01*
X4638D02*
Y3066D01*
X4640Y3061D01*
X4643Y3057D01*
X4647Y3055D01*
X4630Y3095D02*
X4643D01*
X4657D02*
X4668D01*
X4675Y3087D02*
X4677Y3085D01*
X4675Y3084D01*
X4673Y3085D01*
Y3087D01*
X4675Y3091D01*
X4677Y3093D01*
X4682Y3095D01*
X4690D01*
X4696Y3093D01*
X4698Y3091D01*
X4700Y3087D01*
Y3084D01*
X4698Y3080D01*
X4692Y3076D01*
X4682Y3072D01*
X4679Y3070D01*
X4675Y3066D01*
X4673Y3061D01*
Y3055D01*
X4690Y3095D02*
X4694Y3093D01*
X4696Y3091D01*
X4698Y3087D01*
Y3084D01*
X4696Y3080D01*
X4690Y3076D01*
X4682Y3072D01*
X4673Y3059D02*
X4675Y3061D01*
X4679D01*
X4688Y3057D01*
X4694D01*
X4698Y3059D01*
X4700Y3061D01*
Y3065D01*
X4679Y3061D02*
X4688Y3055D01*
X4696D01*
X4698Y3057D01*
X4700Y3061D01*
X4627Y2982D02*
Y2942D01*
X4629Y2982D02*
Y2942D01*
X4622Y2982D02*
X4645D01*
X4650Y2980D01*
X4652Y2978D01*
X4654Y2974D01*
Y2971D01*
X4652Y2967D01*
X4650Y2965D01*
X4645Y2963D01*
X4629D01*
X4645Y2982D02*
X4648Y2980D01*
X4650Y2978D01*
X4652Y2974D01*
Y2971D01*
X4650Y2967D01*
X4648Y2965D01*
X4645Y2963D01*
X4622Y2942D02*
X4635D01*
X4639Y2963D02*
X4643Y2961D01*
X4645Y2959D01*
X4650Y2946D01*
X4652Y2944D01*
X4654D01*
X4656Y2946D01*
X4643Y2961D02*
X4645Y2957D01*
X4648Y2944D01*
X4650Y2942D01*
X4654D01*
X4656Y2946D01*
Y2948D01*
X4661Y2974D02*
X4665Y2976D01*
X4671Y2982D01*
Y2942D01*
X4669Y2980D02*
Y2942D01*
X4661D02*
X4678D01*
X4697Y2982D02*
X4691Y2980D01*
X4687Y2974D01*
X4685Y2965D01*
Y2959D01*
X4687Y2950D01*
X4691Y2944D01*
X4697Y2942D01*
X4700D01*
X4706Y2944D01*
X4710Y2950D01*
X4712Y2959D01*
Y2965D01*
X4710Y2974D01*
X4706Y2980D01*
X4700Y2982D01*
X4697D01*
X4693Y2980D01*
X4691Y2978D01*
X4689Y2974D01*
X4687Y2965D01*
Y2959D01*
X4689Y2950D01*
X4691Y2946D01*
X4693Y2944D01*
X4697Y2942D01*
X4700D02*
X4704Y2944D01*
X4706Y2946D01*
X4708Y2950D01*
X4710Y2959D01*
Y2965D01*
X4708Y2974D01*
X4706Y2978D01*
X4704Y2980D01*
X4700Y2982D01*
X4177Y3054D02*
X4179Y3049D01*
Y3060D01*
X4177Y3054D01*
X4173Y3058D01*
X4167Y3060D01*
X4163D01*
X4158Y3058D01*
X4154Y3054D01*
X4152Y3050D01*
X4150Y3045D01*
Y3035D01*
X4152Y3030D01*
X4154Y3026D01*
X4158Y3022D01*
X4163Y3020D01*
X4167D01*
X4173Y3022D01*
X4177Y3026D01*
X4179Y3030D01*
X4163Y3060D02*
X4160Y3058D01*
X4156Y3054D01*
X4154Y3050D01*
X4152Y3045D01*
Y3035D01*
X4154Y3030D01*
X4156Y3026D01*
X4160Y3022D01*
X4163Y3020D01*
X4188Y3060D02*
X4184Y3041D01*
X4188Y3045D01*
X4194Y3047D01*
X4200D01*
X4205Y3045D01*
X4209Y3041D01*
X4211Y3035D01*
Y3031D01*
X4209Y3026D01*
X4205Y3022D01*
X4200Y3020D01*
X4194D01*
X4188Y3022D01*
X4186Y3024D01*
X4184Y3028D01*
Y3030D01*
X4186Y3031D01*
X4188Y3030D01*
X4186Y3028D01*
X4200Y3047D02*
X4203Y3045D01*
X4207Y3041D01*
X4209Y3035D01*
Y3031D01*
X4207Y3026D01*
X4203Y3022D01*
X4200Y3020D01*
X4188Y3060D02*
X4207D01*
X4188Y3058D02*
X4198D01*
X4207Y3060D01*
X4172Y2984D02*
X4174Y2979D01*
Y2990D01*
X4172Y2984D01*
X4168Y2988D01*
X4162Y2990D01*
X4158D01*
X4153Y2988D01*
X4149Y2984D01*
X4147Y2980D01*
X4145Y2975D01*
Y2965D01*
X4147Y2960D01*
X4149Y2956D01*
X4153Y2952D01*
X4158Y2950D01*
X4162D01*
X4168Y2952D01*
X4172Y2956D01*
X4174Y2960D01*
X4158Y2990D02*
X4155Y2988D01*
X4151Y2984D01*
X4149Y2980D01*
X4147Y2975D01*
Y2965D01*
X4149Y2960D01*
X4151Y2956D01*
X4155Y2952D01*
X4158Y2950D01*
X4202Y2984D02*
X4200Y2982D01*
X4202Y2980D01*
X4204Y2982D01*
Y2984D01*
X4202Y2988D01*
X4198Y2990D01*
X4193D01*
X4187Y2988D01*
X4183Y2984D01*
X4181Y2980D01*
X4179Y2973D01*
Y2961D01*
X4181Y2956D01*
X4185Y2952D01*
X4191Y2950D01*
X4195D01*
X4200Y2952D01*
X4204Y2956D01*
X4206Y2961D01*
Y2963D01*
X4204Y2969D01*
X4200Y2973D01*
X4195Y2975D01*
X4193D01*
X4187Y2973D01*
X4183Y2969D01*
X4181Y2963D01*
X4193Y2990D02*
X4189Y2988D01*
X4185Y2984D01*
X4183Y2980D01*
X4181Y2973D01*
Y2961D01*
X4183Y2956D01*
X4187Y2952D01*
X4191Y2950D01*
X4195D02*
X4198Y2952D01*
X4202Y2956D01*
X4204Y2961D01*
Y2963D01*
X4202Y2969D01*
X4198Y2973D01*
X4195Y2975D01*
X3951Y3331D02*
Y3291D01*
X3953Y3331D02*
Y3291D01*
X3945Y3331D02*
X3968D01*
X3974Y3329D01*
X3975Y3327D01*
X3977Y3323D01*
Y3320D01*
X3975Y3316D01*
X3974Y3314D01*
X3968Y3312D01*
X3953D01*
X3968Y3331D02*
X3972Y3329D01*
X3974Y3327D01*
X3975Y3323D01*
Y3320D01*
X3974Y3316D01*
X3972Y3314D01*
X3968Y3312D01*
X3945Y3291D02*
X3958D01*
X3962Y3312D02*
X3966Y3310D01*
X3968Y3308D01*
X3974Y3295D01*
X3975Y3293D01*
X3977D01*
X3979Y3295D01*
X3966Y3310D02*
X3968Y3306D01*
X3972Y3293D01*
X3974Y3291D01*
X3977D01*
X3979Y3295D01*
Y3297D01*
X3988Y3331D02*
X3984Y3312D01*
X3988Y3316D01*
X3994Y3318D01*
X4000D01*
X4005Y3316D01*
X4009Y3312D01*
X4011Y3306D01*
Y3302D01*
X4009Y3297D01*
X4005Y3293D01*
X4000Y3291D01*
X3994D01*
X3988Y3293D01*
X3986Y3295D01*
X3984Y3299D01*
Y3300D01*
X3986Y3302D01*
X3988Y3300D01*
X3986Y3299D01*
X4000Y3318D02*
X4003Y3316D01*
X4007Y3312D01*
X4009Y3306D01*
Y3302D01*
X4007Y3297D01*
X4003Y3293D01*
X4000Y3291D01*
X3988Y3331D02*
X4007D01*
X3988Y3329D02*
X3998D01*
X4007Y3331D01*
X3776Y3125D02*
Y3085D01*
X3778Y3125D02*
Y3085D01*
X3770Y3125D02*
X3789D01*
X3795Y3123D01*
X3799Y3119D01*
X3800Y3115D01*
X3802Y3110D01*
Y3100D01*
X3800Y3095D01*
X3799Y3091D01*
X3795Y3087D01*
X3789Y3085D01*
X3770D01*
X3789Y3125D02*
X3793Y3123D01*
X3797Y3119D01*
X3799Y3115D01*
X3800Y3110D01*
Y3100D01*
X3799Y3095D01*
X3797Y3091D01*
X3793Y3087D01*
X3789Y3085D01*
X3810Y3117D02*
X3812Y3115D01*
X3810Y3114D01*
X3808Y3115D01*
Y3117D01*
X3810Y3121D01*
X3812Y3123D01*
X3817Y3125D01*
X3825D01*
X3831Y3123D01*
X3832Y3121D01*
X3834Y3117D01*
Y3114D01*
X3832Y3110D01*
X3827Y3106D01*
X3817Y3102D01*
X3813Y3100D01*
X3810Y3096D01*
X3808Y3091D01*
Y3085D01*
X3825Y3125D02*
X3829Y3123D01*
X3831Y3121D01*
X3832Y3117D01*
Y3114D01*
X3831Y3110D01*
X3825Y3106D01*
X3817Y3102D01*
X3808Y3089D02*
X3810Y3091D01*
X3813D01*
X3823Y3087D01*
X3829D01*
X3832Y3089D01*
X3834Y3091D01*
Y3095D01*
X3813Y3091D02*
X3823Y3085D01*
X3831D01*
X3832Y3087D01*
X3834Y3091D01*
X3880Y3352D02*
Y3312D01*
X3882Y3352D02*
Y3312D01*
X3893Y3341D02*
Y3325D01*
X3874Y3352D02*
X3904D01*
Y3341D01*
X3903Y3352D01*
X3882Y3333D02*
X3893D01*
X3874Y3312D02*
X3887D01*
X3910Y3344D02*
X3914Y3346D01*
X3920Y3352D01*
Y3312D01*
X3918Y3350D02*
Y3312D01*
X3910D02*
X3927D01*
X3486Y2905D02*
Y2865D01*
X3488Y2905D02*
Y2865D01*
X3480Y2905D02*
X3503D01*
X3509Y2903D01*
X3510Y2901D01*
X3512Y2897D01*
Y2894D01*
X3510Y2890D01*
X3509Y2888D01*
X3503Y2886D01*
X3488D01*
X3503Y2905D02*
X3507Y2903D01*
X3509Y2901D01*
X3510Y2897D01*
Y2894D01*
X3509Y2890D01*
X3507Y2888D01*
X3503Y2886D01*
X3480Y2865D02*
X3493D01*
X3497Y2886D02*
X3501Y2884D01*
X3503Y2882D01*
X3509Y2869D01*
X3510Y2867D01*
X3512D01*
X3514Y2869D01*
X3501Y2884D02*
X3503Y2880D01*
X3507Y2867D01*
X3509Y2865D01*
X3512D01*
X3514Y2869D01*
Y2871D01*
X3542Y2899D02*
X3540Y2897D01*
X3542Y2895D01*
X3544Y2897D01*
Y2899D01*
X3542Y2903D01*
X3538Y2905D01*
X3533D01*
X3527Y2903D01*
X3523Y2899D01*
X3521Y2895D01*
X3519Y2888D01*
Y2876D01*
X3521Y2871D01*
X3525Y2867D01*
X3531Y2865D01*
X3535D01*
X3540Y2867D01*
X3544Y2871D01*
X3546Y2876D01*
Y2878D01*
X3544Y2884D01*
X3540Y2888D01*
X3535Y2890D01*
X3533D01*
X3527Y2888D01*
X3523Y2884D01*
X3521Y2878D01*
X3533Y2905D02*
X3529Y2903D01*
X3525Y2899D01*
X3523Y2895D01*
X3521Y2888D01*
Y2876D01*
X3523Y2871D01*
X3527Y2867D01*
X3531Y2865D01*
X3535D02*
X3538Y2867D01*
X3542Y2871D01*
X3544Y2876D01*
Y2878D01*
X3542Y2884D01*
X3538Y2888D01*
X3535Y2890D01*
X3591Y3650D02*
Y3610D01*
X3593Y3650D02*
Y3610D01*
X3585Y3650D02*
X3608D01*
X3614Y3648D01*
X3615Y3646D01*
X3617Y3642D01*
Y3639D01*
X3615Y3635D01*
X3614Y3633D01*
X3608Y3631D01*
X3593D01*
X3608Y3650D02*
X3612Y3648D01*
X3614Y3646D01*
X3615Y3642D01*
Y3639D01*
X3614Y3635D01*
X3612Y3633D01*
X3608Y3631D01*
X3585Y3610D02*
X3598D01*
X3602Y3631D02*
X3606Y3629D01*
X3608Y3627D01*
X3614Y3614D01*
X3615Y3612D01*
X3617D01*
X3619Y3614D01*
X3606Y3629D02*
X3608Y3625D01*
X3612Y3612D01*
X3614Y3610D01*
X3617D01*
X3619Y3614D01*
Y3616D01*
X3626Y3642D02*
X3628Y3640D01*
X3626Y3639D01*
X3624Y3640D01*
Y3642D01*
X3626Y3646D01*
X3628Y3648D01*
X3634Y3650D01*
X3642D01*
X3647Y3648D01*
X3649Y3644D01*
Y3639D01*
X3647Y3635D01*
X3642Y3633D01*
X3636D01*
X3642Y3650D02*
X3645Y3648D01*
X3647Y3644D01*
Y3639D01*
X3645Y3635D01*
X3642Y3633D01*
X3645Y3631D01*
X3649Y3627D01*
X3651Y3623D01*
Y3618D01*
X3649Y3614D01*
X3647Y3612D01*
X3642Y3610D01*
X3634D01*
X3628Y3612D01*
X3626Y3614D01*
X3624Y3618D01*
Y3620D01*
X3626Y3621D01*
X3628Y3620D01*
X3626Y3618D01*
X3647Y3629D02*
X3649Y3623D01*
Y3618D01*
X3647Y3614D01*
X3645Y3612D01*
X3642Y3610D01*
X3951Y3125D02*
Y3085D01*
X3953Y3125D02*
Y3085D01*
X3945Y3125D02*
X3968D01*
X3974Y3123D01*
X3975Y3121D01*
X3977Y3117D01*
Y3114D01*
X3975Y3110D01*
X3974Y3108D01*
X3968Y3106D01*
X3953D01*
X3968Y3125D02*
X3972Y3123D01*
X3974Y3121D01*
X3975Y3117D01*
Y3114D01*
X3974Y3110D01*
X3972Y3108D01*
X3968Y3106D01*
X3945Y3085D02*
X3958D01*
X3962Y3106D02*
X3966Y3104D01*
X3968Y3102D01*
X3974Y3089D01*
X3975Y3087D01*
X3977D01*
X3979Y3089D01*
X3966Y3104D02*
X3968Y3100D01*
X3972Y3087D01*
X3974Y3085D01*
X3977D01*
X3979Y3089D01*
Y3091D01*
X3986Y3117D02*
X3988Y3115D01*
X3986Y3114D01*
X3984Y3115D01*
Y3117D01*
X3986Y3121D01*
X3988Y3123D01*
X3994Y3125D01*
X4002D01*
X4007Y3123D01*
X4009Y3121D01*
X4011Y3117D01*
Y3114D01*
X4009Y3110D01*
X4003Y3106D01*
X3994Y3102D01*
X3990Y3100D01*
X3986Y3096D01*
X3984Y3091D01*
Y3085D01*
X4002Y3125D02*
X4005Y3123D01*
X4007Y3121D01*
X4009Y3117D01*
Y3114D01*
X4007Y3110D01*
X4002Y3106D01*
X3994Y3102D01*
X3984Y3089D02*
X3986Y3091D01*
X3990D01*
X4000Y3087D01*
X4005D01*
X4009Y3089D01*
X4011Y3091D01*
Y3095D01*
X3990Y3091D02*
X4000Y3085D01*
X4007D01*
X4009Y3087D01*
X4011Y3091D01*
M02*
